M48
METRIC,LZ,000.000
;FILE_FORMAT=3:3
;TYPE=PLATED
;Layer: PTH_Through
;EasyEDA v6.5.15, 2022-09-14 21:09:58
;b6703ba792d845058589b0d9c50fe8b8,8325645c73b1497a9d20913bdd0b9c8b,10
;Gerber Generator version 0.2
;Holesize 1 = 0.306 mm
T01C0.306
;Holesize 2 = 1.000 mm
T02C1.000
;Holesize 3 = 1.101 mm
T03C1.101
%
G05
G90
T01
X019745Y040515
X003038Y035554
X016055Y040506
X021844Y034933
X017691Y-003790
X023937Y033710
X000785Y021326
X033995Y022090
X027938Y022746
X036535Y037376
X033700Y036987
X005124Y023294
X017708Y032666
X042275Y-031519
X041615Y033436
X020023Y010869
X025328Y035058
X015720Y019457
X044069Y042164
X006948Y-010509
X007075Y031680
X013632Y040474
X044923Y-030261
X013901Y-040541
X006499Y005292
T02
X002413Y-008890
X002413Y-006350
X002413Y-003810
X002413Y-001270
X002413Y001270
X002413Y003810
X002413Y006350
X002413Y008890
X027559Y-025527
X027559Y-028067
X027559Y-030607
T03
X016139Y-011968
X011999Y-014762
X016139Y022697
X011999Y019903
X016139Y005364
X011999Y002570
X016139Y-029301
X011999Y-032095
M30
