G04 Layer: TopLayer*
G04 EasyEDA v6.5.15, 2022-09-14 21:09:58*
G04 b6703ba792d845058589b0d9c50fe8b8,8325645c73b1497a9d20913bdd0b9c8b,10*
G04 Gerber Generator version 0.2*
G04 Scale: 100 percent, Rotated: No, Reflected: No *
G04 Dimensions in millimeters *
G04 leading zeros omitted , absolute positions ,4 integer and 5 decimal *
%FSLAX45Y45*%
%MOMM*%

%AMMACRO1*21,1,$1,$2,0,0,$3*%
%ADD10C,0.7000*%
%ADD11C,0.4000*%
%ADD12MACRO1,0.864X0.8065X0.0000*%
%ADD13R,0.8640X0.8065*%
%ADD14MACRO1,1.62X2.0464X0.0000*%
%ADD15R,0.8000X0.9000*%
%ADD16R,0.8000X0.7000*%
%ADD17R,0.9000X0.8000*%
%ADD18R,0.7000X0.8000*%
%ADD19C,1.8796*%
%ADD20R,1.6000X1.6000*%
%ADD21C,2.0000*%
%ADD22R,1.8000X1.8000*%
%ADD23C,0.6100*%
%ADD24C,0.0108*%

%LPD*%
D10*
X241300Y-889000D02*
G01*
X413893Y-716406D01*
X413893Y1288973D01*
X303809Y1399057D01*
X303809Y3555364D01*
X4161485Y2427503D02*
G01*
X4161485Y2489580D01*
X3184931Y3466134D01*
X3029229Y3466134D01*
X2443911Y4051452D01*
X1974519Y4051452D01*
X1974519Y3936136D02*
G01*
X1974519Y4051452D01*
X2435301Y-3919626D02*
G01*
X2430170Y-3919626D01*
X2429992Y-3919448D01*
X2899663Y-3919626D02*
G01*
X2435301Y-3919626D01*
X2435301Y-3963847D02*
G01*
X2435301Y-3919626D01*
X2435301Y-4073855D02*
G01*
X2435301Y-3963847D01*
X2899663Y-3919626D02*
G01*
X2901797Y-3917492D01*
X2899663Y-4073855D02*
G01*
X2899663Y-3919626D01*
X2429992Y-3919448D02*
G01*
X1964131Y-3919448D01*
X2429992Y-3917314D02*
G01*
X2429992Y-3919448D01*
X2901797Y-3917492D02*
G01*
X3317646Y-3917492D01*
X3338245Y-3938066D01*
X2901797Y-3873144D02*
G01*
X2901797Y-3917492D01*
X3338245Y-3938066D02*
G01*
X3364001Y-3963847D01*
X3338245Y-3938066D02*
G01*
X3358997Y-3917314D01*
X3358997Y-3797300D02*
G01*
X3358997Y-3917314D01*
X3364001Y-4073855D02*
G01*
X3364001Y-3963847D01*
X1492097Y-3797300D02*
G01*
X1492097Y-3917314D01*
X1530121Y-3940352D02*
G01*
X1507083Y-3917314D01*
X1492097Y-3917314D01*
X1947468Y-3940352D02*
G01*
X1530121Y-3940352D01*
X1530121Y-3940352D02*
G01*
X1506626Y-3963847D01*
X1964131Y-3919448D02*
G01*
X1961997Y-3917314D01*
X1961997Y-3889882D01*
X1964131Y-3919448D02*
G01*
X1947468Y-3936111D01*
X1947468Y-3940352D01*
X1947468Y-3940352D02*
G01*
X1970963Y-3963847D01*
X1506626Y-4073855D02*
G01*
X1506626Y-3963847D01*
X2184400Y3493262D02*
G01*
X2184400Y3790797D01*
X2589225Y2093417D02*
G01*
X2589225Y2470353D01*
X2184400Y2875178D01*
X2184400Y3493262D01*
X1566976Y4051452D02*
G01*
X1604695Y4051452D01*
X1605508Y4050639D01*
X1566976Y3936136D02*
G01*
X1566976Y4051452D01*
X1769084Y-378993D02*
G01*
X1769084Y1273276D01*
X2589225Y2093417D01*
X2589225Y2093417D02*
G01*
X4145508Y2093417D01*
X4415485Y2363393D01*
X4415485Y2427503D01*
X1970963Y-4073855D02*
G01*
X1970963Y-3963847D01*
X2838399Y-3060700D02*
G01*
X2901797Y-3124098D01*
X2901797Y-3797300D01*
X2838399Y-3060700D02*
G01*
X2920898Y-3060700D01*
X2755900Y-3060700D02*
G01*
X2838399Y-3060700D01*
X2920898Y-3060700D02*
G01*
X3393947Y-2587650D01*
X4453254Y-2587650D01*
X4492294Y-2626690D01*
X4492294Y-2741701D02*
G01*
X4492294Y-2626690D01*
X2901797Y-3797300D02*
G01*
X2901797Y-3873144D01*
X4689805Y-2736697D02*
G01*
X4749800Y-2736697D01*
X1961997Y-3797300D02*
G01*
X1961997Y-3807510D01*
X1961997Y-3843578D02*
G01*
X1961997Y-3889882D01*
X1961997Y-3843578D02*
G01*
X1961997Y-3807510D01*
X2429992Y-3797300D02*
G01*
X2429992Y-3917314D01*
X4689805Y-2736697D02*
G01*
X4629784Y-2736697D01*
X4492294Y-2741701D02*
G01*
X4624781Y-2741701D01*
X4629784Y-2736697D01*
D11*
X241300Y-381000D02*
G01*
X78460Y-218160D01*
X78460Y2132634D01*
X2393695Y3370961D02*
G01*
X3020415Y3370961D01*
X3907510Y2483865D01*
X3907510Y2427503D01*
X3399510Y2427503D02*
G01*
X3399510Y2208961D01*
X3145510Y2427503D02*
G01*
X2946781Y2427503D01*
X2793847Y2274570D01*
X3653510Y4044010D02*
G01*
X3653510Y3737584D01*
X3399510Y4044010D02*
G01*
X3369995Y4014495D01*
X3369995Y3698722D01*
X3145510Y4044010D02*
G01*
X2951683Y4237837D01*
X851712Y4237837D01*
X194767Y3580892D01*
X194767Y935532D01*
X241300Y889000D01*
X955675Y3936136D02*
G01*
X852474Y3936136D01*
X512445Y2329357D02*
G01*
X512445Y3596106D01*
X852474Y3936136D01*
X1199895Y1990344D02*
G01*
X1339900Y1990344D01*
X1974519Y3785463D02*
G01*
X1974519Y2382926D01*
X1627911Y2036318D01*
X1385874Y2036318D01*
X1339900Y1990344D01*
D10*
X3609187Y-3999915D02*
G01*
X3526586Y-3917314D01*
X3499002Y-3917314D01*
X3493998Y-4248835D02*
G01*
X3521583Y-4248835D01*
X3609187Y-4161231D01*
X3609187Y-3999915D01*
X3609187Y-3999915D02*
G01*
X4266717Y-3999915D01*
X4327093Y-3939539D01*
X4483100Y-3939539D02*
G01*
X4327093Y-3939539D01*
X3029661Y-4303852D02*
G01*
X3029838Y-4304029D01*
X3438804Y-4304029D01*
X3493998Y-4248835D01*
X3499002Y-3797300D02*
G01*
X3499002Y-3917314D01*
X2100961Y-4304741D02*
G01*
X2564434Y-4304741D01*
X2565323Y-4303852D01*
X2100961Y-4304741D02*
G01*
X2100961Y-4303852D01*
X1636623Y-4303852D02*
G01*
X1637512Y-4304741D01*
X2100961Y-4304741D01*
X2565323Y-4193844D02*
G01*
X2565323Y-4303852D01*
X2565323Y-4303852D02*
G01*
X2565501Y-4304029D01*
X3029483Y-4304029D01*
X3029661Y-4303852D01*
X3029661Y-4193844D02*
G01*
X3029661Y-4303852D01*
X3493998Y-4193844D02*
G01*
X3493998Y-4248835D01*
X1891842Y-3467125D02*
G01*
X1842262Y-3467125D01*
X1632102Y-3677285D01*
X1632102Y-3677285D02*
G01*
X1631086Y-3676269D01*
X1418869Y-3676269D01*
X1284401Y-3810736D01*
X1284401Y-4155389D01*
X1433042Y-4304029D01*
X1636445Y-4304029D01*
X1636623Y-4303852D01*
X1891842Y-3467125D02*
G01*
X2102002Y-3677285D01*
X4669485Y2427503D02*
G01*
X4669485Y2354249D01*
X4103115Y1787880D01*
X2553106Y1787880D01*
X1891842Y1126617D01*
X1891842Y-3467125D01*
X3041802Y-3797300D02*
G01*
X3156813Y-3797300D01*
X3499002Y-3797300D02*
G01*
X3499002Y-3677285D01*
X3499002Y-3677285D02*
G01*
X3489045Y-3667328D01*
X3286785Y-3667328D01*
X3156813Y-3797300D01*
X2102002Y-3797300D02*
G01*
X2102002Y-3677285D01*
X2569997Y-3677285D02*
G01*
X2569819Y-3677107D01*
X2337206Y-3677107D01*
X2217013Y-3797300D01*
X1632102Y-3797300D02*
G01*
X1632102Y-3677285D01*
X1636623Y-4276420D02*
G01*
X1636623Y-4303852D01*
X1636623Y-4193844D02*
G01*
X1636623Y-4276420D01*
X2102002Y-3797300D02*
G01*
X2217013Y-3797300D01*
X2569997Y-3797300D02*
G01*
X2569997Y-3677285D01*
X2100961Y-4193844D02*
G01*
X2100961Y-4303852D01*
D11*
X4483100Y-3264128D02*
G01*
X4749800Y-2997428D01*
X4749800Y-2876702D01*
X4483100Y-3426460D02*
G01*
X4483100Y-3264128D01*
X4372305Y-2871698D02*
G01*
X4372305Y-3153333D01*
X4483100Y-3264128D01*
X3907510Y4044010D02*
G01*
X3907510Y3851503D01*
X3661181Y3605174D01*
X3024759Y3605174D01*
X2481783Y4148150D01*
X1882470Y4148150D01*
X1770761Y4036440D01*
X1770761Y3936136D02*
G01*
X1770761Y4036440D01*
X4372305Y-2741701D02*
G01*
X4277309Y-2741701D01*
X1770761Y3266567D02*
G01*
X1770761Y3785463D01*
X4277309Y-2741701D02*
G01*
X4227499Y-2791510D01*
X4227499Y-3151860D01*
X2755900Y-2806700D02*
G01*
X2594635Y-2645435D01*
X2594635Y-1691970D01*
X2002307Y-1099642D01*
X2002307Y1086865D01*
X4161485Y3343630D02*
G01*
X4161485Y4044010D01*
X2184400Y3930802D02*
G01*
X2289403Y3930802D01*
X2532811Y3505758D02*
G01*
X2532811Y3687394D01*
X2289403Y3930802D01*
X1613915Y536447D02*
G01*
X1613915Y-1196847D01*
X1613915Y536447D02*
G01*
X1613915Y1903755D01*
X1572005Y1945665D01*
X4415482Y4044007D02*
G01*
X4406900Y4052590D01*
X4406900Y4216400D01*
X1613915Y2269744D02*
G01*
X1613915Y2409748D01*
X1566976Y3785463D02*
G01*
X1566976Y2456687D01*
X1613915Y2409748D01*
X1613915Y-2930144D02*
G01*
X1613915Y-1196847D01*
X3364001Y-4193844D02*
G01*
X3264001Y-4193844D01*
X3029661Y-4073855D02*
G01*
X3144011Y-4073855D01*
X3264001Y-4193844D01*
X694791Y-1050874D02*
G01*
X740562Y-1005103D01*
X740562Y3134944D01*
X707517Y3167989D01*
X1159459Y3685159D02*
G01*
X707517Y3233216D01*
X707517Y3167989D01*
X1363218Y4036440D02*
G01*
X1363218Y4047388D01*
X1363218Y3936136D02*
G01*
X1363218Y4036440D01*
X1159459Y3785463D02*
G01*
X1159459Y3685159D01*
X4492294Y-3026079D02*
G01*
X4492294Y-2871698D01*
X1506626Y-4193844D02*
G01*
X1466545Y-4193844D01*
X1390065Y-4117365D01*
X1390065Y-4054144D01*
X1970963Y-4193844D02*
G01*
X1870963Y-4193844D01*
X1870963Y-4193844D02*
G01*
X1750974Y-4073855D01*
X1636623Y-4073855D01*
X2435301Y-4193844D02*
G01*
X2335326Y-4193844D01*
X2335326Y-4193844D02*
G01*
X2215337Y-4073855D01*
X2100961Y-4073855D01*
X2899663Y-4193844D02*
G01*
X2799664Y-4193844D01*
X2799664Y-4193844D02*
G01*
X2679674Y-4073855D01*
X2565323Y-4073855D01*
X604672Y2234158D02*
G01*
X462178Y2234158D01*
X415112Y2281224D01*
X415112Y3620668D01*
X831062Y4036618D01*
X1159281Y4036618D01*
X1159459Y4036440D01*
X852474Y3785463D02*
G01*
X604672Y3537661D01*
X604672Y2234158D01*
X649909Y529183D02*
G01*
X604672Y574420D01*
X604672Y2234158D01*
X1159459Y3936136D02*
G01*
X1159459Y4036440D01*
X955675Y3785463D02*
G01*
X852474Y3785463D01*
X1059891Y-3209544D02*
G01*
X830783Y-2980436D01*
X830783Y3152724D01*
X1363218Y3685159D01*
X1363218Y3785463D02*
G01*
X1363218Y3685159D01*
X1199895Y-3209544D02*
G01*
X1059891Y-3209544D01*
D12*
G01*
X1974527Y3936124D03*
D13*
G01*
X1974519Y3785463D03*
D14*
G01*
X4483102Y-3939545D03*
G01*
X4483102Y-3426449D03*
D12*
G01*
X1770755Y3936124D03*
D13*
G01*
X1770761Y3785463D03*
G36*
X3195497Y4181500D02*
G01*
X3201517Y4181144D01*
X3207461Y4180052D01*
X3213227Y4178249D01*
X3218738Y4175785D01*
X3223895Y4172661D01*
X3228644Y4168927D01*
X3232937Y4164660D01*
X3236645Y4159910D01*
X3239770Y4154728D01*
X3242259Y4149242D01*
X3244037Y4143476D01*
X3245129Y4137532D01*
X3245510Y4131487D01*
X3245510Y3956507D01*
X3245129Y3950462D01*
X3244037Y3944543D01*
X3242259Y3938778D01*
X3239770Y3933266D01*
X3236645Y3928084D01*
X3232937Y3923334D01*
X3228644Y3919067D01*
X3223895Y3915359D01*
X3218738Y3912235D01*
X3213227Y3909745D01*
X3207461Y3907942D01*
X3201517Y3906875D01*
X3195497Y3906494D01*
X3095497Y3906494D01*
X3089478Y3906875D01*
X3083534Y3907942D01*
X3077768Y3909745D01*
X3072256Y3912235D01*
X3067100Y3915359D01*
X3062350Y3919067D01*
X3058083Y3923334D01*
X3054350Y3928084D01*
X3051225Y3933266D01*
X3048736Y3938778D01*
X3046958Y3944543D01*
X3045866Y3950462D01*
X3045510Y3956507D01*
X3045510Y4131487D01*
X3045866Y4137532D01*
X3046958Y4143476D01*
X3048736Y4149242D01*
X3051225Y4154728D01*
X3054350Y4159910D01*
X3058083Y4164660D01*
X3062350Y4168927D01*
X3067100Y4172661D01*
X3072256Y4175785D01*
X3077768Y4178249D01*
X3083534Y4180052D01*
X3089478Y4181144D01*
X3095497Y4181500D01*
G37*
G36*
X3449497Y4181500D02*
G01*
X3455517Y4181144D01*
X3461461Y4180052D01*
X3467227Y4178249D01*
X3472738Y4175785D01*
X3477895Y4172661D01*
X3482644Y4168927D01*
X3486911Y4164660D01*
X3490645Y4159910D01*
X3493770Y4154728D01*
X3496259Y4149242D01*
X3498037Y4143476D01*
X3499129Y4137532D01*
X3499510Y4131487D01*
X3499510Y3956507D01*
X3499129Y3950462D01*
X3498037Y3944543D01*
X3496259Y3938778D01*
X3493770Y3933266D01*
X3490645Y3928084D01*
X3486911Y3923334D01*
X3482644Y3919067D01*
X3477895Y3915359D01*
X3472738Y3912235D01*
X3467227Y3909745D01*
X3461461Y3907942D01*
X3455517Y3906875D01*
X3449497Y3906494D01*
X3349497Y3906494D01*
X3343478Y3906875D01*
X3337534Y3907942D01*
X3331768Y3909745D01*
X3326256Y3912235D01*
X3321100Y3915359D01*
X3316350Y3919067D01*
X3312083Y3923334D01*
X3308350Y3928084D01*
X3305225Y3933266D01*
X3302736Y3938778D01*
X3300958Y3944543D01*
X3299866Y3950462D01*
X3299510Y3956507D01*
X3299510Y4131487D01*
X3299866Y4137532D01*
X3300958Y4143476D01*
X3302736Y4149242D01*
X3305225Y4154728D01*
X3308350Y4159910D01*
X3312083Y4164660D01*
X3316350Y4168927D01*
X3321100Y4172661D01*
X3326256Y4175785D01*
X3331768Y4178249D01*
X3337534Y4180052D01*
X3343478Y4181144D01*
X3349497Y4181500D01*
G37*
G36*
X3703497Y4181500D02*
G01*
X3709517Y4181144D01*
X3715461Y4180052D01*
X3721227Y4178249D01*
X3726738Y4175785D01*
X3731895Y4172661D01*
X3736644Y4168927D01*
X3740911Y4164660D01*
X3744645Y4159910D01*
X3747770Y4154728D01*
X3750259Y4149242D01*
X3752037Y4143476D01*
X3753129Y4137532D01*
X3753510Y4131487D01*
X3753510Y3956507D01*
X3753129Y3950462D01*
X3752037Y3944543D01*
X3750259Y3938778D01*
X3747770Y3933266D01*
X3744645Y3928084D01*
X3740911Y3923334D01*
X3736644Y3919067D01*
X3731895Y3915359D01*
X3726738Y3912235D01*
X3721227Y3909745D01*
X3715461Y3907942D01*
X3709517Y3906875D01*
X3703497Y3906494D01*
X3603497Y3906494D01*
X3597478Y3906875D01*
X3591534Y3907942D01*
X3585768Y3909745D01*
X3580256Y3912235D01*
X3575100Y3915359D01*
X3570350Y3919067D01*
X3566083Y3923334D01*
X3562350Y3928084D01*
X3559225Y3933266D01*
X3556736Y3938778D01*
X3554958Y3944543D01*
X3553866Y3950462D01*
X3553510Y3956507D01*
X3553510Y4131487D01*
X3553866Y4137532D01*
X3554958Y4143476D01*
X3556736Y4149242D01*
X3559225Y4154728D01*
X3562350Y4159910D01*
X3566083Y4164660D01*
X3570350Y4168927D01*
X3575100Y4172661D01*
X3580256Y4175785D01*
X3585768Y4178249D01*
X3591534Y4180052D01*
X3597478Y4181144D01*
X3603497Y4181500D01*
G37*
G36*
X3957497Y4181500D02*
G01*
X3963517Y4181144D01*
X3969461Y4180052D01*
X3975227Y4178249D01*
X3980738Y4175785D01*
X3985895Y4172661D01*
X3990644Y4168927D01*
X3994911Y4164660D01*
X3998645Y4159910D01*
X4001770Y4154728D01*
X4004259Y4149242D01*
X4006037Y4143476D01*
X4007129Y4137532D01*
X4007510Y4131487D01*
X4007510Y3956507D01*
X4007129Y3950462D01*
X4006037Y3944543D01*
X4004259Y3938778D01*
X4001770Y3933266D01*
X3998645Y3928084D01*
X3994911Y3923334D01*
X3990644Y3919067D01*
X3985895Y3915359D01*
X3980738Y3912235D01*
X3975227Y3909745D01*
X3969461Y3907942D01*
X3963517Y3906875D01*
X3957497Y3906494D01*
X3857497Y3906494D01*
X3851478Y3906875D01*
X3845534Y3907942D01*
X3839768Y3909745D01*
X3834256Y3912235D01*
X3829100Y3915359D01*
X3824350Y3919067D01*
X3820083Y3923334D01*
X3816350Y3928084D01*
X3813225Y3933266D01*
X3810736Y3938778D01*
X3808958Y3944543D01*
X3807866Y3950462D01*
X3807485Y3956507D01*
X3807485Y4131487D01*
X3807866Y4137532D01*
X3808958Y4143476D01*
X3810736Y4149242D01*
X3813225Y4154728D01*
X3816350Y4159910D01*
X3820083Y4164660D01*
X3824350Y4168927D01*
X3829100Y4172661D01*
X3834256Y4175785D01*
X3839768Y4178249D01*
X3845534Y4180052D01*
X3851478Y4181144D01*
X3857497Y4181500D01*
G37*
G36*
X4211497Y4181500D02*
G01*
X4217517Y4181144D01*
X4223461Y4180052D01*
X4229227Y4178249D01*
X4234738Y4175785D01*
X4239895Y4172661D01*
X4244644Y4168927D01*
X4248911Y4164660D01*
X4252645Y4159910D01*
X4255770Y4154728D01*
X4258259Y4149242D01*
X4260037Y4143476D01*
X4261129Y4137532D01*
X4261484Y4131487D01*
X4261484Y3956507D01*
X4261129Y3950462D01*
X4260037Y3944543D01*
X4258259Y3938778D01*
X4255770Y3933266D01*
X4252645Y3928084D01*
X4248911Y3923334D01*
X4244644Y3919067D01*
X4239895Y3915359D01*
X4234738Y3912235D01*
X4229227Y3909745D01*
X4223461Y3907942D01*
X4217517Y3906875D01*
X4211497Y3906494D01*
X4111497Y3906494D01*
X4105478Y3906875D01*
X4099534Y3907942D01*
X4093768Y3909745D01*
X4088256Y3912235D01*
X4083100Y3915359D01*
X4078350Y3919067D01*
X4074083Y3923334D01*
X4070350Y3928084D01*
X4067225Y3933266D01*
X4064736Y3938778D01*
X4062958Y3944543D01*
X4061866Y3950462D01*
X4061485Y3956507D01*
X4061485Y4131487D01*
X4061866Y4137532D01*
X4062958Y4143476D01*
X4064736Y4149242D01*
X4067225Y4154728D01*
X4070350Y4159910D01*
X4074083Y4164660D01*
X4078350Y4168927D01*
X4083100Y4172661D01*
X4088256Y4175785D01*
X4093768Y4178249D01*
X4099534Y4180052D01*
X4105478Y4181144D01*
X4111497Y4181500D01*
G37*
G36*
X4465497Y4181500D02*
G01*
X4471517Y4181144D01*
X4477461Y4180052D01*
X4483227Y4178249D01*
X4488738Y4175785D01*
X4493895Y4172661D01*
X4498644Y4168927D01*
X4502911Y4164660D01*
X4506645Y4159910D01*
X4509770Y4154728D01*
X4512259Y4149242D01*
X4514037Y4143476D01*
X4515129Y4137532D01*
X4515484Y4131487D01*
X4515484Y3956507D01*
X4515129Y3950462D01*
X4514037Y3944543D01*
X4512259Y3938778D01*
X4509770Y3933266D01*
X4506645Y3928084D01*
X4502911Y3923334D01*
X4498644Y3919067D01*
X4493895Y3915359D01*
X4488738Y3912235D01*
X4483227Y3909745D01*
X4477461Y3907942D01*
X4471517Y3906875D01*
X4465497Y3906494D01*
X4365497Y3906494D01*
X4359478Y3906875D01*
X4353534Y3907942D01*
X4347768Y3909745D01*
X4342256Y3912235D01*
X4337100Y3915359D01*
X4332350Y3919067D01*
X4328083Y3923334D01*
X4324350Y3928084D01*
X4321225Y3933266D01*
X4318736Y3938778D01*
X4316958Y3944543D01*
X4315866Y3950462D01*
X4315485Y3956507D01*
X4315485Y4131487D01*
X4315866Y4137532D01*
X4316958Y4143476D01*
X4318736Y4149242D01*
X4321225Y4154728D01*
X4324350Y4159910D01*
X4328083Y4164660D01*
X4332350Y4168927D01*
X4337100Y4172661D01*
X4342256Y4175785D01*
X4347768Y4178249D01*
X4353534Y4180052D01*
X4359478Y4181144D01*
X4365497Y4181500D01*
G37*
G36*
X4719497Y4181500D02*
G01*
X4725517Y4181144D01*
X4731461Y4180052D01*
X4737227Y4178249D01*
X4742738Y4175785D01*
X4747895Y4172661D01*
X4752644Y4168927D01*
X4756911Y4164660D01*
X4760645Y4159910D01*
X4763770Y4154728D01*
X4766259Y4149242D01*
X4768037Y4143476D01*
X4769129Y4137532D01*
X4769484Y4131487D01*
X4769484Y3956507D01*
X4769129Y3950462D01*
X4768037Y3944543D01*
X4766259Y3938778D01*
X4763770Y3933266D01*
X4760645Y3928084D01*
X4756911Y3923334D01*
X4752644Y3919067D01*
X4747895Y3915359D01*
X4742738Y3912235D01*
X4737227Y3909745D01*
X4731461Y3907942D01*
X4725517Y3906875D01*
X4719497Y3906494D01*
X4619497Y3906494D01*
X4613478Y3906875D01*
X4607534Y3907942D01*
X4601768Y3909745D01*
X4596256Y3912235D01*
X4591100Y3915359D01*
X4586350Y3919067D01*
X4582058Y3923334D01*
X4578350Y3928084D01*
X4575225Y3933266D01*
X4572736Y3938778D01*
X4570958Y3944543D01*
X4569866Y3950462D01*
X4569485Y3956507D01*
X4569485Y4131487D01*
X4569866Y4137532D01*
X4570958Y4143476D01*
X4572736Y4149242D01*
X4575225Y4154728D01*
X4578350Y4159910D01*
X4582058Y4164660D01*
X4586350Y4168927D01*
X4591100Y4172661D01*
X4596256Y4175785D01*
X4601768Y4178249D01*
X4607534Y4180052D01*
X4613478Y4181144D01*
X4619497Y4181500D01*
G37*
G36*
X3195497Y2564993D02*
G01*
X3201517Y2564637D01*
X3207461Y2563545D01*
X3213227Y2561742D01*
X3218738Y2559278D01*
X3223895Y2556154D01*
X3228644Y2552420D01*
X3232937Y2548153D01*
X3236645Y2543403D01*
X3239770Y2538247D01*
X3242259Y2532735D01*
X3244037Y2526969D01*
X3245129Y2521026D01*
X3245510Y2515006D01*
X3245510Y2340000D01*
X3245129Y2333980D01*
X3244037Y2328037D01*
X3242259Y2322271D01*
X3239770Y2316759D01*
X3236645Y2311603D01*
X3232937Y2306853D01*
X3228644Y2302586D01*
X3223895Y2298852D01*
X3218738Y2295728D01*
X3213227Y2293264D01*
X3207461Y2291461D01*
X3201517Y2290368D01*
X3195497Y2290013D01*
X3095497Y2290013D01*
X3089478Y2290368D01*
X3083534Y2291461D01*
X3077768Y2293264D01*
X3072256Y2295728D01*
X3067100Y2298852D01*
X3062350Y2302586D01*
X3058083Y2306853D01*
X3054350Y2311603D01*
X3051225Y2316759D01*
X3048736Y2322271D01*
X3046958Y2328037D01*
X3045866Y2333980D01*
X3045510Y2340000D01*
X3045510Y2515006D01*
X3045866Y2521026D01*
X3046958Y2526969D01*
X3048736Y2532735D01*
X3051225Y2538247D01*
X3054350Y2543403D01*
X3058083Y2548153D01*
X3062350Y2552420D01*
X3067100Y2556154D01*
X3072256Y2559278D01*
X3077768Y2561742D01*
X3083534Y2563545D01*
X3089478Y2564637D01*
X3095497Y2564993D01*
G37*
G36*
X3449497Y2564993D02*
G01*
X3455517Y2564637D01*
X3461461Y2563545D01*
X3467227Y2561742D01*
X3472738Y2559278D01*
X3477895Y2556154D01*
X3482644Y2552420D01*
X3486911Y2548153D01*
X3490645Y2543403D01*
X3493770Y2538247D01*
X3496259Y2532735D01*
X3498037Y2526969D01*
X3499129Y2521026D01*
X3499510Y2515006D01*
X3499510Y2340000D01*
X3499129Y2333980D01*
X3498037Y2328037D01*
X3496259Y2322271D01*
X3493770Y2316759D01*
X3490645Y2311603D01*
X3486911Y2306853D01*
X3482644Y2302586D01*
X3477895Y2298852D01*
X3472738Y2295728D01*
X3467227Y2293264D01*
X3461461Y2291461D01*
X3455517Y2290368D01*
X3449497Y2290013D01*
X3349497Y2290013D01*
X3343478Y2290368D01*
X3337534Y2291461D01*
X3331768Y2293264D01*
X3326256Y2295728D01*
X3321100Y2298852D01*
X3316350Y2302586D01*
X3312083Y2306853D01*
X3308350Y2311603D01*
X3305225Y2316759D01*
X3302736Y2322271D01*
X3300958Y2328037D01*
X3299866Y2333980D01*
X3299510Y2340000D01*
X3299510Y2515006D01*
X3299866Y2521026D01*
X3300958Y2526969D01*
X3302736Y2532735D01*
X3305225Y2538247D01*
X3308350Y2543403D01*
X3312083Y2548153D01*
X3316350Y2552420D01*
X3321100Y2556154D01*
X3326256Y2559278D01*
X3331768Y2561742D01*
X3337534Y2563545D01*
X3343478Y2564637D01*
X3349497Y2564993D01*
G37*
G36*
X3703497Y2564993D02*
G01*
X3709517Y2564637D01*
X3715461Y2563545D01*
X3721227Y2561742D01*
X3726738Y2559278D01*
X3731895Y2556154D01*
X3736644Y2552420D01*
X3740911Y2548153D01*
X3744645Y2543403D01*
X3747770Y2538247D01*
X3750259Y2532735D01*
X3752037Y2526969D01*
X3753129Y2521026D01*
X3753510Y2515006D01*
X3753510Y2340000D01*
X3753129Y2333980D01*
X3752037Y2328037D01*
X3750259Y2322271D01*
X3747770Y2316759D01*
X3744645Y2311603D01*
X3740911Y2306853D01*
X3736644Y2302586D01*
X3731895Y2298852D01*
X3726738Y2295728D01*
X3721227Y2293264D01*
X3715461Y2291461D01*
X3709517Y2290368D01*
X3703497Y2290013D01*
X3603497Y2290013D01*
X3597478Y2290368D01*
X3591534Y2291461D01*
X3585768Y2293264D01*
X3580256Y2295728D01*
X3575100Y2298852D01*
X3570350Y2302586D01*
X3566083Y2306853D01*
X3562350Y2311603D01*
X3559225Y2316759D01*
X3556736Y2322271D01*
X3554958Y2328037D01*
X3553866Y2333980D01*
X3553510Y2340000D01*
X3553510Y2515006D01*
X3553866Y2521026D01*
X3554958Y2526969D01*
X3556736Y2532735D01*
X3559225Y2538247D01*
X3562350Y2543403D01*
X3566083Y2548153D01*
X3570350Y2552420D01*
X3575100Y2556154D01*
X3580256Y2559278D01*
X3585768Y2561742D01*
X3591534Y2563545D01*
X3597478Y2564637D01*
X3603497Y2564993D01*
G37*
G36*
X3957497Y2564993D02*
G01*
X3963517Y2564637D01*
X3969461Y2563545D01*
X3975227Y2561742D01*
X3980738Y2559278D01*
X3985895Y2556154D01*
X3990644Y2552420D01*
X3994911Y2548153D01*
X3998645Y2543403D01*
X4001770Y2538247D01*
X4004259Y2532735D01*
X4006037Y2526969D01*
X4007129Y2521026D01*
X4007510Y2515006D01*
X4007510Y2340000D01*
X4007129Y2333980D01*
X4006037Y2328037D01*
X4004259Y2322271D01*
X4001770Y2316759D01*
X3998645Y2311603D01*
X3994911Y2306853D01*
X3990644Y2302586D01*
X3985895Y2298852D01*
X3980738Y2295728D01*
X3975227Y2293264D01*
X3969461Y2291461D01*
X3963517Y2290368D01*
X3957497Y2290013D01*
X3857497Y2290013D01*
X3851478Y2290368D01*
X3845534Y2291461D01*
X3839768Y2293264D01*
X3834256Y2295728D01*
X3829100Y2298852D01*
X3824350Y2302586D01*
X3820083Y2306853D01*
X3816350Y2311603D01*
X3813225Y2316759D01*
X3810736Y2322271D01*
X3808958Y2328037D01*
X3807866Y2333980D01*
X3807485Y2340000D01*
X3807485Y2515006D01*
X3807866Y2521026D01*
X3808958Y2526969D01*
X3810736Y2532735D01*
X3813225Y2538247D01*
X3816350Y2543403D01*
X3820083Y2548153D01*
X3824350Y2552420D01*
X3829100Y2556154D01*
X3834256Y2559278D01*
X3839768Y2561742D01*
X3845534Y2563545D01*
X3851478Y2564637D01*
X3857497Y2564993D01*
G37*
G36*
X4211497Y2564993D02*
G01*
X4217517Y2564637D01*
X4223461Y2563545D01*
X4229227Y2561742D01*
X4234738Y2559278D01*
X4239895Y2556154D01*
X4244644Y2552420D01*
X4248911Y2548153D01*
X4252645Y2543403D01*
X4255770Y2538247D01*
X4258259Y2532735D01*
X4260037Y2526969D01*
X4261129Y2521026D01*
X4261484Y2515006D01*
X4261484Y2340000D01*
X4261129Y2333980D01*
X4260037Y2328037D01*
X4258259Y2322271D01*
X4255770Y2316759D01*
X4252645Y2311603D01*
X4248911Y2306853D01*
X4244644Y2302586D01*
X4239895Y2298852D01*
X4234738Y2295728D01*
X4229227Y2293264D01*
X4223461Y2291461D01*
X4217517Y2290368D01*
X4211497Y2290013D01*
X4111497Y2290013D01*
X4105478Y2290368D01*
X4099534Y2291461D01*
X4093768Y2293264D01*
X4088256Y2295728D01*
X4083100Y2298852D01*
X4078350Y2302586D01*
X4074083Y2306853D01*
X4070350Y2311603D01*
X4067225Y2316759D01*
X4064736Y2322271D01*
X4062958Y2328037D01*
X4061866Y2333980D01*
X4061485Y2340000D01*
X4061485Y2515006D01*
X4061866Y2521026D01*
X4062958Y2526969D01*
X4064736Y2532735D01*
X4067225Y2538247D01*
X4070350Y2543403D01*
X4074083Y2548153D01*
X4078350Y2552420D01*
X4083100Y2556154D01*
X4088256Y2559278D01*
X4093768Y2561742D01*
X4099534Y2563545D01*
X4105478Y2564637D01*
X4111497Y2564993D01*
G37*
G36*
X4465497Y2564993D02*
G01*
X4471517Y2564637D01*
X4477461Y2563545D01*
X4483227Y2561742D01*
X4488738Y2559278D01*
X4493895Y2556154D01*
X4498644Y2552420D01*
X4502911Y2548153D01*
X4506645Y2543403D01*
X4509770Y2538247D01*
X4512259Y2532735D01*
X4514037Y2526969D01*
X4515129Y2521026D01*
X4515484Y2515006D01*
X4515484Y2340000D01*
X4515129Y2333980D01*
X4514037Y2328037D01*
X4512259Y2322271D01*
X4509770Y2316759D01*
X4506645Y2311603D01*
X4502911Y2306853D01*
X4498644Y2302586D01*
X4493895Y2298852D01*
X4488738Y2295728D01*
X4483227Y2293264D01*
X4477461Y2291461D01*
X4471517Y2290368D01*
X4465497Y2290013D01*
X4365497Y2290013D01*
X4359478Y2290368D01*
X4353534Y2291461D01*
X4347768Y2293264D01*
X4342256Y2295728D01*
X4337100Y2298852D01*
X4332350Y2302586D01*
X4328083Y2306853D01*
X4324350Y2311603D01*
X4321225Y2316759D01*
X4318736Y2322271D01*
X4316958Y2328037D01*
X4315866Y2333980D01*
X4315485Y2340000D01*
X4315485Y2515006D01*
X4315866Y2521026D01*
X4316958Y2526969D01*
X4318736Y2532735D01*
X4321225Y2538247D01*
X4324350Y2543403D01*
X4328083Y2548153D01*
X4332350Y2552420D01*
X4337100Y2556154D01*
X4342256Y2559278D01*
X4347768Y2561742D01*
X4353534Y2563545D01*
X4359478Y2564637D01*
X4365497Y2564993D01*
G37*
G36*
X4719497Y2564993D02*
G01*
X4725517Y2564637D01*
X4731461Y2563545D01*
X4737227Y2561742D01*
X4742738Y2559278D01*
X4747895Y2556154D01*
X4752644Y2552420D01*
X4756911Y2548153D01*
X4760645Y2543403D01*
X4763770Y2538247D01*
X4766259Y2532735D01*
X4768037Y2526969D01*
X4769129Y2521026D01*
X4769484Y2515006D01*
X4769484Y2340000D01*
X4769129Y2333980D01*
X4768037Y2328037D01*
X4766259Y2322271D01*
X4763770Y2316759D01*
X4760645Y2311603D01*
X4756911Y2306853D01*
X4752644Y2302586D01*
X4747895Y2298852D01*
X4742738Y2295728D01*
X4737227Y2293264D01*
X4731461Y2291461D01*
X4725517Y2290368D01*
X4719497Y2290013D01*
X4619497Y2290013D01*
X4613478Y2290368D01*
X4607534Y2291461D01*
X4601768Y2293264D01*
X4596256Y2295728D01*
X4591100Y2298852D01*
X4586350Y2302586D01*
X4582058Y2306853D01*
X4578350Y2311603D01*
X4575225Y2316759D01*
X4572736Y2322271D01*
X4570958Y2328037D01*
X4569866Y2333980D01*
X4569485Y2340000D01*
X4569485Y2515006D01*
X4569866Y2521026D01*
X4570958Y2526969D01*
X4572736Y2532735D01*
X4575225Y2538247D01*
X4578350Y2543403D01*
X4582058Y2548153D01*
X4586350Y2552420D01*
X4591100Y2556154D01*
X4596256Y2559278D01*
X4601768Y2561742D01*
X4607534Y2563545D01*
X4613478Y2564637D01*
X4619497Y2564993D01*
G37*
D15*
G01*
X3358997Y-3797300D03*
G01*
X3499002Y-3797300D03*
D16*
G01*
X3364001Y-4073855D03*
G01*
X3493998Y-4073855D03*
G01*
X3493998Y-4193844D03*
G01*
X3364001Y-4193844D03*
D17*
G01*
X2184400Y3790797D03*
G01*
X2184400Y3930802D03*
G01*
X4749800Y-2736697D03*
G01*
X4749800Y-2876702D03*
D15*
G01*
X1492097Y-3797300D03*
G01*
X1632102Y-3797300D03*
G01*
X1961997Y-3797300D03*
G01*
X2102002Y-3797300D03*
G01*
X2429992Y-3797300D03*
G01*
X2569997Y-3797300D03*
G01*
X2901797Y-3797300D03*
G01*
X3041802Y-3797300D03*
D18*
G01*
X4492294Y-2741701D03*
G01*
X4492294Y-2871698D03*
G01*
X4372305Y-2871698D03*
G01*
X4372305Y-2741701D03*
D16*
G01*
X1506626Y-4073855D03*
G01*
X1636623Y-4073855D03*
G01*
X1636623Y-4193844D03*
G01*
X1506626Y-4193844D03*
G01*
X1970963Y-4073855D03*
G01*
X2100961Y-4073855D03*
G01*
X2100961Y-4193844D03*
G01*
X1970963Y-4193844D03*
G01*
X2435301Y-4073855D03*
G01*
X2565323Y-4073855D03*
G01*
X2565323Y-4193844D03*
G01*
X2435301Y-4193844D03*
G01*
X2899663Y-4073855D03*
G01*
X3029661Y-4073855D03*
G01*
X3029661Y-4193844D03*
G01*
X2899663Y-4193844D03*
D12*
G01*
X955675Y3936124D03*
D13*
G01*
X955675Y3785463D03*
D12*
G01*
X1159446Y3936124D03*
D13*
G01*
X1159459Y3785463D03*
D12*
G01*
X1363215Y3936124D03*
D13*
G01*
X1363218Y3785463D03*
D12*
G01*
X1566986Y3936124D03*
D13*
G01*
X1566976Y3785463D03*
D19*
G01*
X241300Y-889000D03*
G01*
X241300Y-635000D03*
G01*
X241300Y-381000D03*
G01*
X241300Y-127000D03*
G01*
X241300Y127000D03*
G01*
X241300Y381000D03*
G01*
X241300Y635000D03*
G01*
X241300Y889000D03*
D20*
G01*
X1613915Y-1196847D03*
G01*
X1199895Y-1476247D03*
G01*
X1613915Y2269744D03*
G01*
X1199895Y1990344D03*
G01*
X1613915Y536447D03*
G01*
X1199895Y257047D03*
G01*
X1613915Y-2930144D03*
G01*
X1199895Y-3209544D03*
D21*
G01*
X2755900Y-2552700D03*
G01*
X2755900Y-2806700D03*
D22*
G01*
X2755900Y-3060700D03*
D23*
G01*
X1974519Y4051452D03*
G01*
X303809Y3555364D03*
G01*
X1605508Y4050639D03*
G01*
X2184400Y3493262D03*
G01*
X1769084Y-378993D03*
G01*
X2393695Y3370961D03*
G01*
X78460Y2132634D03*
G01*
X3399510Y2208961D03*
G01*
X2793847Y2274570D03*
G01*
X3653510Y3737584D03*
G01*
X3369995Y3698722D03*
G01*
X512445Y2329357D03*
G01*
X1770761Y3266567D03*
G01*
X4227499Y-3151860D03*
G01*
X4161485Y3343630D03*
G01*
X2002307Y1086865D03*
G01*
X2532811Y3505758D03*
G01*
X1572005Y1945665D03*
G01*
X4406900Y4216400D03*
G01*
X694791Y-1050874D03*
G01*
X707517Y3167989D03*
G01*
X1363218Y4047388D03*
G01*
X4492294Y-3026079D03*
G01*
X1390065Y-4054144D03*
G01*
X649909Y529183D03*
M02*
