G04 Layer: TopPasteMaskLayer*
G04 EasyEDA v6.5.15, 2022-09-14 21:09:58*
G04 b6703ba792d845058589b0d9c50fe8b8,8325645c73b1497a9d20913bdd0b9c8b,10*
G04 Gerber Generator version 0.2*
G04 Scale: 100 percent, Rotated: No, Reflected: No *
G04 Dimensions in millimeters *
G04 leading zeros omitted , absolute positions ,4 integer and 5 decimal *
%FSLAX45Y45*%
%MOMM*%

%AMMACRO1*21,1,$1,$2,0,0,$3*%
%ADD10MACRO1,1.62X2.0464X0.0000*%
%ADD11R,0.8000X0.9000*%
%ADD12R,0.8000X0.7000*%
%ADD13R,0.9000X0.8000*%
%ADD14R,0.7000X0.8000*%
%ADD15R,0.0165X0.8000*%

%LPD*%
G36*
X1934514Y3985310D02*
G01*
X1929536Y3980281D01*
X1929536Y3900322D01*
X1934514Y3895293D01*
X1957324Y3895293D01*
X1957324Y3932326D01*
X1990343Y3932326D01*
X1990343Y3895293D01*
X2014524Y3895293D01*
X2019554Y3900322D01*
X2019554Y3980281D01*
X2014524Y3985310D01*
G37*
G36*
X1934514Y3825290D02*
G01*
X1929536Y3820312D01*
X1929536Y3741318D01*
X1934514Y3736289D01*
X2014524Y3736289D01*
X2019554Y3741318D01*
X2019554Y3820312D01*
X2014524Y3825290D01*
X1990343Y3825290D01*
X1990343Y3787292D01*
X1957324Y3787292D01*
X1957324Y3825290D01*
G37*
G36*
X1730756Y3985310D02*
G01*
X1725777Y3980281D01*
X1725777Y3900322D01*
X1730756Y3895293D01*
X1753565Y3895293D01*
X1753565Y3932326D01*
X1786534Y3932326D01*
X1786534Y3895293D01*
X1810766Y3895293D01*
X1815744Y3900322D01*
X1815744Y3980281D01*
X1810766Y3985310D01*
G37*
G36*
X1730756Y3825290D02*
G01*
X1725777Y3820312D01*
X1725777Y3741318D01*
X1730756Y3736289D01*
X1810766Y3736289D01*
X1815744Y3741318D01*
X1815744Y3820312D01*
X1810766Y3825290D01*
X1786534Y3825290D01*
X1786534Y3787292D01*
X1753565Y3787292D01*
X1753565Y3825290D01*
G37*
G36*
X915669Y3985310D02*
G01*
X910691Y3980281D01*
X910691Y3900322D01*
X915669Y3895293D01*
X938479Y3895293D01*
X938479Y3932326D01*
X971448Y3932326D01*
X971448Y3895293D01*
X995680Y3895293D01*
X1000658Y3900322D01*
X1000658Y3980281D01*
X995680Y3985310D01*
G37*
G36*
X915669Y3825290D02*
G01*
X910691Y3820312D01*
X910691Y3741318D01*
X915669Y3736289D01*
X995680Y3736289D01*
X1000658Y3741318D01*
X1000658Y3820312D01*
X995680Y3825290D01*
X971448Y3825290D01*
X971448Y3787292D01*
X938479Y3787292D01*
X938479Y3825290D01*
G37*
G36*
X1119428Y3985310D02*
G01*
X1114450Y3980281D01*
X1114450Y3900322D01*
X1119428Y3895293D01*
X1142238Y3895293D01*
X1142238Y3932326D01*
X1175258Y3932326D01*
X1175258Y3895293D01*
X1199438Y3895293D01*
X1204468Y3900322D01*
X1204468Y3980281D01*
X1199438Y3985310D01*
G37*
G36*
X1119428Y3825290D02*
G01*
X1114450Y3820312D01*
X1114450Y3741318D01*
X1119428Y3736289D01*
X1199438Y3736289D01*
X1204468Y3741318D01*
X1204468Y3820312D01*
X1199438Y3825290D01*
X1175258Y3825290D01*
X1175258Y3787292D01*
X1142238Y3787292D01*
X1142238Y3825290D01*
G37*
G36*
X1323238Y3985310D02*
G01*
X1318209Y3980281D01*
X1318209Y3900322D01*
X1323238Y3895293D01*
X1345996Y3895293D01*
X1345996Y3932326D01*
X1379016Y3932326D01*
X1379016Y3895293D01*
X1403197Y3895293D01*
X1408226Y3900322D01*
X1408226Y3980281D01*
X1403197Y3985310D01*
G37*
G36*
X1323238Y3825290D02*
G01*
X1318209Y3820312D01*
X1318209Y3741318D01*
X1323238Y3736289D01*
X1403197Y3736289D01*
X1408226Y3741318D01*
X1408226Y3820312D01*
X1403197Y3825290D01*
X1379016Y3825290D01*
X1379016Y3787292D01*
X1345996Y3787292D01*
X1345996Y3825290D01*
G37*
G36*
X1526997Y3985310D02*
G01*
X1521968Y3980281D01*
X1521968Y3900322D01*
X1526997Y3895293D01*
X1549806Y3895293D01*
X1549806Y3932326D01*
X1582775Y3932326D01*
X1582775Y3895293D01*
X1607007Y3895293D01*
X1611985Y3900322D01*
X1611985Y3980281D01*
X1607007Y3985310D01*
G37*
G36*
X1526997Y3825290D02*
G01*
X1521968Y3820312D01*
X1521968Y3741318D01*
X1526997Y3736289D01*
X1607007Y3736289D01*
X1611985Y3741318D01*
X1611985Y3820312D01*
X1607007Y3825290D01*
X1582775Y3825290D01*
X1582775Y3787292D01*
X1549806Y3787292D01*
X1549806Y3825290D01*
G37*
D10*
G01*
X4483102Y-3939545D03*
G01*
X4483102Y-3426449D03*
G36*
X3195497Y4181500D02*
G01*
X3201517Y4181144D01*
X3207461Y4180052D01*
X3213227Y4178249D01*
X3218738Y4175785D01*
X3223895Y4172661D01*
X3228644Y4168927D01*
X3232937Y4164660D01*
X3236645Y4159910D01*
X3239770Y4154728D01*
X3242259Y4149242D01*
X3244037Y4143476D01*
X3245129Y4137532D01*
X3245510Y4131487D01*
X3245510Y3956507D01*
X3245129Y3950462D01*
X3244037Y3944543D01*
X3242259Y3938778D01*
X3239770Y3933266D01*
X3236645Y3928084D01*
X3232937Y3923334D01*
X3228644Y3919067D01*
X3223895Y3915359D01*
X3218738Y3912235D01*
X3213227Y3909745D01*
X3207461Y3907942D01*
X3201517Y3906875D01*
X3195497Y3906494D01*
X3095497Y3906494D01*
X3089478Y3906875D01*
X3083534Y3907942D01*
X3077768Y3909745D01*
X3072256Y3912235D01*
X3067100Y3915359D01*
X3062350Y3919067D01*
X3058083Y3923334D01*
X3054350Y3928084D01*
X3051225Y3933266D01*
X3048736Y3938778D01*
X3046958Y3944543D01*
X3045866Y3950462D01*
X3045510Y3956507D01*
X3045510Y4131487D01*
X3045866Y4137532D01*
X3046958Y4143476D01*
X3048736Y4149242D01*
X3051225Y4154728D01*
X3054350Y4159910D01*
X3058083Y4164660D01*
X3062350Y4168927D01*
X3067100Y4172661D01*
X3072256Y4175785D01*
X3077768Y4178249D01*
X3083534Y4180052D01*
X3089478Y4181144D01*
X3095497Y4181500D01*
G37*
G36*
X3449497Y4181500D02*
G01*
X3455517Y4181144D01*
X3461461Y4180052D01*
X3467227Y4178249D01*
X3472738Y4175785D01*
X3477895Y4172661D01*
X3482644Y4168927D01*
X3486911Y4164660D01*
X3490645Y4159910D01*
X3493770Y4154728D01*
X3496259Y4149242D01*
X3498037Y4143476D01*
X3499129Y4137532D01*
X3499510Y4131487D01*
X3499510Y3956507D01*
X3499129Y3950462D01*
X3498037Y3944543D01*
X3496259Y3938778D01*
X3493770Y3933266D01*
X3490645Y3928084D01*
X3486911Y3923334D01*
X3482644Y3919067D01*
X3477895Y3915359D01*
X3472738Y3912235D01*
X3467227Y3909745D01*
X3461461Y3907942D01*
X3455517Y3906875D01*
X3449497Y3906494D01*
X3349497Y3906494D01*
X3343478Y3906875D01*
X3337534Y3907942D01*
X3331768Y3909745D01*
X3326256Y3912235D01*
X3321100Y3915359D01*
X3316350Y3919067D01*
X3312083Y3923334D01*
X3308350Y3928084D01*
X3305225Y3933266D01*
X3302736Y3938778D01*
X3300958Y3944543D01*
X3299866Y3950462D01*
X3299510Y3956507D01*
X3299510Y4131487D01*
X3299866Y4137532D01*
X3300958Y4143476D01*
X3302736Y4149242D01*
X3305225Y4154728D01*
X3308350Y4159910D01*
X3312083Y4164660D01*
X3316350Y4168927D01*
X3321100Y4172661D01*
X3326256Y4175785D01*
X3331768Y4178249D01*
X3337534Y4180052D01*
X3343478Y4181144D01*
X3349497Y4181500D01*
G37*
G36*
X3703497Y4181500D02*
G01*
X3709517Y4181144D01*
X3715461Y4180052D01*
X3721227Y4178249D01*
X3726738Y4175785D01*
X3731895Y4172661D01*
X3736644Y4168927D01*
X3740911Y4164660D01*
X3744645Y4159910D01*
X3747770Y4154728D01*
X3750259Y4149242D01*
X3752037Y4143476D01*
X3753129Y4137532D01*
X3753510Y4131487D01*
X3753510Y3956507D01*
X3753129Y3950462D01*
X3752037Y3944543D01*
X3750259Y3938778D01*
X3747770Y3933266D01*
X3744645Y3928084D01*
X3740911Y3923334D01*
X3736644Y3919067D01*
X3731895Y3915359D01*
X3726738Y3912235D01*
X3721227Y3909745D01*
X3715461Y3907942D01*
X3709517Y3906875D01*
X3703497Y3906494D01*
X3603497Y3906494D01*
X3597478Y3906875D01*
X3591534Y3907942D01*
X3585768Y3909745D01*
X3580256Y3912235D01*
X3575100Y3915359D01*
X3570350Y3919067D01*
X3566083Y3923334D01*
X3562350Y3928084D01*
X3559225Y3933266D01*
X3556736Y3938778D01*
X3554958Y3944543D01*
X3553866Y3950462D01*
X3553510Y3956507D01*
X3553510Y4131487D01*
X3553866Y4137532D01*
X3554958Y4143476D01*
X3556736Y4149242D01*
X3559225Y4154728D01*
X3562350Y4159910D01*
X3566083Y4164660D01*
X3570350Y4168927D01*
X3575100Y4172661D01*
X3580256Y4175785D01*
X3585768Y4178249D01*
X3591534Y4180052D01*
X3597478Y4181144D01*
X3603497Y4181500D01*
G37*
G36*
X3957497Y4181500D02*
G01*
X3963517Y4181144D01*
X3969461Y4180052D01*
X3975227Y4178249D01*
X3980738Y4175785D01*
X3985895Y4172661D01*
X3990644Y4168927D01*
X3994911Y4164660D01*
X3998645Y4159910D01*
X4001770Y4154728D01*
X4004259Y4149242D01*
X4006037Y4143476D01*
X4007129Y4137532D01*
X4007510Y4131487D01*
X4007510Y3956507D01*
X4007129Y3950462D01*
X4006037Y3944543D01*
X4004259Y3938778D01*
X4001770Y3933266D01*
X3998645Y3928084D01*
X3994911Y3923334D01*
X3990644Y3919067D01*
X3985895Y3915359D01*
X3980738Y3912235D01*
X3975227Y3909745D01*
X3969461Y3907942D01*
X3963517Y3906875D01*
X3957497Y3906494D01*
X3857497Y3906494D01*
X3851478Y3906875D01*
X3845534Y3907942D01*
X3839768Y3909745D01*
X3834256Y3912235D01*
X3829100Y3915359D01*
X3824350Y3919067D01*
X3820083Y3923334D01*
X3816350Y3928084D01*
X3813225Y3933266D01*
X3810736Y3938778D01*
X3808958Y3944543D01*
X3807866Y3950462D01*
X3807485Y3956507D01*
X3807485Y4131487D01*
X3807866Y4137532D01*
X3808958Y4143476D01*
X3810736Y4149242D01*
X3813225Y4154728D01*
X3816350Y4159910D01*
X3820083Y4164660D01*
X3824350Y4168927D01*
X3829100Y4172661D01*
X3834256Y4175785D01*
X3839768Y4178249D01*
X3845534Y4180052D01*
X3851478Y4181144D01*
X3857497Y4181500D01*
G37*
G36*
X4211497Y4181500D02*
G01*
X4217517Y4181144D01*
X4223461Y4180052D01*
X4229227Y4178249D01*
X4234738Y4175785D01*
X4239895Y4172661D01*
X4244644Y4168927D01*
X4248911Y4164660D01*
X4252645Y4159910D01*
X4255770Y4154728D01*
X4258259Y4149242D01*
X4260037Y4143476D01*
X4261129Y4137532D01*
X4261484Y4131487D01*
X4261484Y3956507D01*
X4261129Y3950462D01*
X4260037Y3944543D01*
X4258259Y3938778D01*
X4255770Y3933266D01*
X4252645Y3928084D01*
X4248911Y3923334D01*
X4244644Y3919067D01*
X4239895Y3915359D01*
X4234738Y3912235D01*
X4229227Y3909745D01*
X4223461Y3907942D01*
X4217517Y3906875D01*
X4211497Y3906494D01*
X4111497Y3906494D01*
X4105478Y3906875D01*
X4099534Y3907942D01*
X4093768Y3909745D01*
X4088256Y3912235D01*
X4083100Y3915359D01*
X4078350Y3919067D01*
X4074083Y3923334D01*
X4070350Y3928084D01*
X4067225Y3933266D01*
X4064736Y3938778D01*
X4062958Y3944543D01*
X4061866Y3950462D01*
X4061485Y3956507D01*
X4061485Y4131487D01*
X4061866Y4137532D01*
X4062958Y4143476D01*
X4064736Y4149242D01*
X4067225Y4154728D01*
X4070350Y4159910D01*
X4074083Y4164660D01*
X4078350Y4168927D01*
X4083100Y4172661D01*
X4088256Y4175785D01*
X4093768Y4178249D01*
X4099534Y4180052D01*
X4105478Y4181144D01*
X4111497Y4181500D01*
G37*
G36*
X4465497Y4181500D02*
G01*
X4471517Y4181144D01*
X4477461Y4180052D01*
X4483227Y4178249D01*
X4488738Y4175785D01*
X4493895Y4172661D01*
X4498644Y4168927D01*
X4502911Y4164660D01*
X4506645Y4159910D01*
X4509770Y4154728D01*
X4512259Y4149242D01*
X4514037Y4143476D01*
X4515129Y4137532D01*
X4515484Y4131487D01*
X4515484Y3956507D01*
X4515129Y3950462D01*
X4514037Y3944543D01*
X4512259Y3938778D01*
X4509770Y3933266D01*
X4506645Y3928084D01*
X4502911Y3923334D01*
X4498644Y3919067D01*
X4493895Y3915359D01*
X4488738Y3912235D01*
X4483227Y3909745D01*
X4477461Y3907942D01*
X4471517Y3906875D01*
X4465497Y3906494D01*
X4365497Y3906494D01*
X4359478Y3906875D01*
X4353534Y3907942D01*
X4347768Y3909745D01*
X4342256Y3912235D01*
X4337100Y3915359D01*
X4332350Y3919067D01*
X4328083Y3923334D01*
X4324350Y3928084D01*
X4321225Y3933266D01*
X4318736Y3938778D01*
X4316958Y3944543D01*
X4315866Y3950462D01*
X4315485Y3956507D01*
X4315485Y4131487D01*
X4315866Y4137532D01*
X4316958Y4143476D01*
X4318736Y4149242D01*
X4321225Y4154728D01*
X4324350Y4159910D01*
X4328083Y4164660D01*
X4332350Y4168927D01*
X4337100Y4172661D01*
X4342256Y4175785D01*
X4347768Y4178249D01*
X4353534Y4180052D01*
X4359478Y4181144D01*
X4365497Y4181500D01*
G37*
G36*
X4719497Y4181500D02*
G01*
X4725517Y4181144D01*
X4731461Y4180052D01*
X4737227Y4178249D01*
X4742738Y4175785D01*
X4747895Y4172661D01*
X4752644Y4168927D01*
X4756911Y4164660D01*
X4760645Y4159910D01*
X4763770Y4154728D01*
X4766259Y4149242D01*
X4768037Y4143476D01*
X4769129Y4137532D01*
X4769484Y4131487D01*
X4769484Y3956507D01*
X4769129Y3950462D01*
X4768037Y3944543D01*
X4766259Y3938778D01*
X4763770Y3933266D01*
X4760645Y3928084D01*
X4756911Y3923334D01*
X4752644Y3919067D01*
X4747895Y3915359D01*
X4742738Y3912235D01*
X4737227Y3909745D01*
X4731461Y3907942D01*
X4725517Y3906875D01*
X4719497Y3906494D01*
X4619497Y3906494D01*
X4613478Y3906875D01*
X4607534Y3907942D01*
X4601768Y3909745D01*
X4596256Y3912235D01*
X4591100Y3915359D01*
X4586350Y3919067D01*
X4582058Y3923334D01*
X4578350Y3928084D01*
X4575225Y3933266D01*
X4572736Y3938778D01*
X4570958Y3944543D01*
X4569866Y3950462D01*
X4569485Y3956507D01*
X4569485Y4131487D01*
X4569866Y4137532D01*
X4570958Y4143476D01*
X4572736Y4149242D01*
X4575225Y4154728D01*
X4578350Y4159910D01*
X4582058Y4164660D01*
X4586350Y4168927D01*
X4591100Y4172661D01*
X4596256Y4175785D01*
X4601768Y4178249D01*
X4607534Y4180052D01*
X4613478Y4181144D01*
X4619497Y4181500D01*
G37*
G36*
X3195497Y2564993D02*
G01*
X3201517Y2564637D01*
X3207461Y2563545D01*
X3213227Y2561742D01*
X3218738Y2559278D01*
X3223895Y2556154D01*
X3228644Y2552420D01*
X3232937Y2548153D01*
X3236645Y2543403D01*
X3239770Y2538247D01*
X3242259Y2532735D01*
X3244037Y2526969D01*
X3245129Y2521026D01*
X3245510Y2515006D01*
X3245510Y2340000D01*
X3245129Y2333980D01*
X3244037Y2328037D01*
X3242259Y2322271D01*
X3239770Y2316759D01*
X3236645Y2311603D01*
X3232937Y2306853D01*
X3228644Y2302586D01*
X3223895Y2298852D01*
X3218738Y2295728D01*
X3213227Y2293264D01*
X3207461Y2291461D01*
X3201517Y2290368D01*
X3195497Y2290013D01*
X3095497Y2290013D01*
X3089478Y2290368D01*
X3083534Y2291461D01*
X3077768Y2293264D01*
X3072256Y2295728D01*
X3067100Y2298852D01*
X3062350Y2302586D01*
X3058083Y2306853D01*
X3054350Y2311603D01*
X3051225Y2316759D01*
X3048736Y2322271D01*
X3046958Y2328037D01*
X3045866Y2333980D01*
X3045510Y2340000D01*
X3045510Y2515006D01*
X3045866Y2521026D01*
X3046958Y2526969D01*
X3048736Y2532735D01*
X3051225Y2538247D01*
X3054350Y2543403D01*
X3058083Y2548153D01*
X3062350Y2552420D01*
X3067100Y2556154D01*
X3072256Y2559278D01*
X3077768Y2561742D01*
X3083534Y2563545D01*
X3089478Y2564637D01*
X3095497Y2564993D01*
G37*
G36*
X3449497Y2564993D02*
G01*
X3455517Y2564637D01*
X3461461Y2563545D01*
X3467227Y2561742D01*
X3472738Y2559278D01*
X3477895Y2556154D01*
X3482644Y2552420D01*
X3486911Y2548153D01*
X3490645Y2543403D01*
X3493770Y2538247D01*
X3496259Y2532735D01*
X3498037Y2526969D01*
X3499129Y2521026D01*
X3499510Y2515006D01*
X3499510Y2340000D01*
X3499129Y2333980D01*
X3498037Y2328037D01*
X3496259Y2322271D01*
X3493770Y2316759D01*
X3490645Y2311603D01*
X3486911Y2306853D01*
X3482644Y2302586D01*
X3477895Y2298852D01*
X3472738Y2295728D01*
X3467227Y2293264D01*
X3461461Y2291461D01*
X3455517Y2290368D01*
X3449497Y2290013D01*
X3349497Y2290013D01*
X3343478Y2290368D01*
X3337534Y2291461D01*
X3331768Y2293264D01*
X3326256Y2295728D01*
X3321100Y2298852D01*
X3316350Y2302586D01*
X3312083Y2306853D01*
X3308350Y2311603D01*
X3305225Y2316759D01*
X3302736Y2322271D01*
X3300958Y2328037D01*
X3299866Y2333980D01*
X3299510Y2340000D01*
X3299510Y2515006D01*
X3299866Y2521026D01*
X3300958Y2526969D01*
X3302736Y2532735D01*
X3305225Y2538247D01*
X3308350Y2543403D01*
X3312083Y2548153D01*
X3316350Y2552420D01*
X3321100Y2556154D01*
X3326256Y2559278D01*
X3331768Y2561742D01*
X3337534Y2563545D01*
X3343478Y2564637D01*
X3349497Y2564993D01*
G37*
G36*
X3703497Y2564993D02*
G01*
X3709517Y2564637D01*
X3715461Y2563545D01*
X3721227Y2561742D01*
X3726738Y2559278D01*
X3731895Y2556154D01*
X3736644Y2552420D01*
X3740911Y2548153D01*
X3744645Y2543403D01*
X3747770Y2538247D01*
X3750259Y2532735D01*
X3752037Y2526969D01*
X3753129Y2521026D01*
X3753510Y2515006D01*
X3753510Y2340000D01*
X3753129Y2333980D01*
X3752037Y2328037D01*
X3750259Y2322271D01*
X3747770Y2316759D01*
X3744645Y2311603D01*
X3740911Y2306853D01*
X3736644Y2302586D01*
X3731895Y2298852D01*
X3726738Y2295728D01*
X3721227Y2293264D01*
X3715461Y2291461D01*
X3709517Y2290368D01*
X3703497Y2290013D01*
X3603497Y2290013D01*
X3597478Y2290368D01*
X3591534Y2291461D01*
X3585768Y2293264D01*
X3580256Y2295728D01*
X3575100Y2298852D01*
X3570350Y2302586D01*
X3566083Y2306853D01*
X3562350Y2311603D01*
X3559225Y2316759D01*
X3556736Y2322271D01*
X3554958Y2328037D01*
X3553866Y2333980D01*
X3553510Y2340000D01*
X3553510Y2515006D01*
X3553866Y2521026D01*
X3554958Y2526969D01*
X3556736Y2532735D01*
X3559225Y2538247D01*
X3562350Y2543403D01*
X3566083Y2548153D01*
X3570350Y2552420D01*
X3575100Y2556154D01*
X3580256Y2559278D01*
X3585768Y2561742D01*
X3591534Y2563545D01*
X3597478Y2564637D01*
X3603497Y2564993D01*
G37*
G36*
X3957497Y2564993D02*
G01*
X3963517Y2564637D01*
X3969461Y2563545D01*
X3975227Y2561742D01*
X3980738Y2559278D01*
X3985895Y2556154D01*
X3990644Y2552420D01*
X3994911Y2548153D01*
X3998645Y2543403D01*
X4001770Y2538247D01*
X4004259Y2532735D01*
X4006037Y2526969D01*
X4007129Y2521026D01*
X4007510Y2515006D01*
X4007510Y2340000D01*
X4007129Y2333980D01*
X4006037Y2328037D01*
X4004259Y2322271D01*
X4001770Y2316759D01*
X3998645Y2311603D01*
X3994911Y2306853D01*
X3990644Y2302586D01*
X3985895Y2298852D01*
X3980738Y2295728D01*
X3975227Y2293264D01*
X3969461Y2291461D01*
X3963517Y2290368D01*
X3957497Y2290013D01*
X3857497Y2290013D01*
X3851478Y2290368D01*
X3845534Y2291461D01*
X3839768Y2293264D01*
X3834256Y2295728D01*
X3829100Y2298852D01*
X3824350Y2302586D01*
X3820083Y2306853D01*
X3816350Y2311603D01*
X3813225Y2316759D01*
X3810736Y2322271D01*
X3808958Y2328037D01*
X3807866Y2333980D01*
X3807485Y2340000D01*
X3807485Y2515006D01*
X3807866Y2521026D01*
X3808958Y2526969D01*
X3810736Y2532735D01*
X3813225Y2538247D01*
X3816350Y2543403D01*
X3820083Y2548153D01*
X3824350Y2552420D01*
X3829100Y2556154D01*
X3834256Y2559278D01*
X3839768Y2561742D01*
X3845534Y2563545D01*
X3851478Y2564637D01*
X3857497Y2564993D01*
G37*
G36*
X4211497Y2564993D02*
G01*
X4217517Y2564637D01*
X4223461Y2563545D01*
X4229227Y2561742D01*
X4234738Y2559278D01*
X4239895Y2556154D01*
X4244644Y2552420D01*
X4248911Y2548153D01*
X4252645Y2543403D01*
X4255770Y2538247D01*
X4258259Y2532735D01*
X4260037Y2526969D01*
X4261129Y2521026D01*
X4261484Y2515006D01*
X4261484Y2340000D01*
X4261129Y2333980D01*
X4260037Y2328037D01*
X4258259Y2322271D01*
X4255770Y2316759D01*
X4252645Y2311603D01*
X4248911Y2306853D01*
X4244644Y2302586D01*
X4239895Y2298852D01*
X4234738Y2295728D01*
X4229227Y2293264D01*
X4223461Y2291461D01*
X4217517Y2290368D01*
X4211497Y2290013D01*
X4111497Y2290013D01*
X4105478Y2290368D01*
X4099534Y2291461D01*
X4093768Y2293264D01*
X4088256Y2295728D01*
X4083100Y2298852D01*
X4078350Y2302586D01*
X4074083Y2306853D01*
X4070350Y2311603D01*
X4067225Y2316759D01*
X4064736Y2322271D01*
X4062958Y2328037D01*
X4061866Y2333980D01*
X4061485Y2340000D01*
X4061485Y2515006D01*
X4061866Y2521026D01*
X4062958Y2526969D01*
X4064736Y2532735D01*
X4067225Y2538247D01*
X4070350Y2543403D01*
X4074083Y2548153D01*
X4078350Y2552420D01*
X4083100Y2556154D01*
X4088256Y2559278D01*
X4093768Y2561742D01*
X4099534Y2563545D01*
X4105478Y2564637D01*
X4111497Y2564993D01*
G37*
G36*
X4465497Y2564993D02*
G01*
X4471517Y2564637D01*
X4477461Y2563545D01*
X4483227Y2561742D01*
X4488738Y2559278D01*
X4493895Y2556154D01*
X4498644Y2552420D01*
X4502911Y2548153D01*
X4506645Y2543403D01*
X4509770Y2538247D01*
X4512259Y2532735D01*
X4514037Y2526969D01*
X4515129Y2521026D01*
X4515484Y2515006D01*
X4515484Y2340000D01*
X4515129Y2333980D01*
X4514037Y2328037D01*
X4512259Y2322271D01*
X4509770Y2316759D01*
X4506645Y2311603D01*
X4502911Y2306853D01*
X4498644Y2302586D01*
X4493895Y2298852D01*
X4488738Y2295728D01*
X4483227Y2293264D01*
X4477461Y2291461D01*
X4471517Y2290368D01*
X4465497Y2290013D01*
X4365497Y2290013D01*
X4359478Y2290368D01*
X4353534Y2291461D01*
X4347768Y2293264D01*
X4342256Y2295728D01*
X4337100Y2298852D01*
X4332350Y2302586D01*
X4328083Y2306853D01*
X4324350Y2311603D01*
X4321225Y2316759D01*
X4318736Y2322271D01*
X4316958Y2328037D01*
X4315866Y2333980D01*
X4315485Y2340000D01*
X4315485Y2515006D01*
X4315866Y2521026D01*
X4316958Y2526969D01*
X4318736Y2532735D01*
X4321225Y2538247D01*
X4324350Y2543403D01*
X4328083Y2548153D01*
X4332350Y2552420D01*
X4337100Y2556154D01*
X4342256Y2559278D01*
X4347768Y2561742D01*
X4353534Y2563545D01*
X4359478Y2564637D01*
X4365497Y2564993D01*
G37*
G36*
X4719497Y2564993D02*
G01*
X4725517Y2564637D01*
X4731461Y2563545D01*
X4737227Y2561742D01*
X4742738Y2559278D01*
X4747895Y2556154D01*
X4752644Y2552420D01*
X4756911Y2548153D01*
X4760645Y2543403D01*
X4763770Y2538247D01*
X4766259Y2532735D01*
X4768037Y2526969D01*
X4769129Y2521026D01*
X4769484Y2515006D01*
X4769484Y2340000D01*
X4769129Y2333980D01*
X4768037Y2328037D01*
X4766259Y2322271D01*
X4763770Y2316759D01*
X4760645Y2311603D01*
X4756911Y2306853D01*
X4752644Y2302586D01*
X4747895Y2298852D01*
X4742738Y2295728D01*
X4737227Y2293264D01*
X4731461Y2291461D01*
X4725517Y2290368D01*
X4719497Y2290013D01*
X4619497Y2290013D01*
X4613478Y2290368D01*
X4607534Y2291461D01*
X4601768Y2293264D01*
X4596256Y2295728D01*
X4591100Y2298852D01*
X4586350Y2302586D01*
X4582058Y2306853D01*
X4578350Y2311603D01*
X4575225Y2316759D01*
X4572736Y2322271D01*
X4570958Y2328037D01*
X4569866Y2333980D01*
X4569485Y2340000D01*
X4569485Y2515006D01*
X4569866Y2521026D01*
X4570958Y2526969D01*
X4572736Y2532735D01*
X4575225Y2538247D01*
X4578350Y2543403D01*
X4582058Y2548153D01*
X4586350Y2552420D01*
X4591100Y2556154D01*
X4596256Y2559278D01*
X4601768Y2561742D01*
X4607534Y2563545D01*
X4613478Y2564637D01*
X4619497Y2564993D01*
G37*
D11*
G01*
X3358997Y-3797300D03*
G01*
X3499002Y-3797300D03*
D12*
G01*
X3364001Y-4073855D03*
G01*
X3493998Y-4073855D03*
G01*
X3493998Y-4193844D03*
G01*
X3364001Y-4193844D03*
D13*
G01*
X2184400Y3790797D03*
G01*
X2184400Y3930802D03*
G01*
X4749800Y-2736697D03*
G01*
X4749800Y-2876702D03*
D11*
G01*
X1492097Y-3797300D03*
G01*
X1632102Y-3797300D03*
G01*
X1961997Y-3797300D03*
G01*
X2102002Y-3797300D03*
G01*
X2429992Y-3797300D03*
G01*
X2569997Y-3797300D03*
G01*
X2901797Y-3797300D03*
G01*
X3041802Y-3797300D03*
D14*
G01*
X4492294Y-2741701D03*
G01*
X4492294Y-2871698D03*
G01*
X4372305Y-2871698D03*
G01*
X4372305Y-2741701D03*
D12*
G01*
X1506626Y-4073855D03*
G01*
X1636623Y-4073855D03*
G01*
X1636623Y-4193844D03*
G01*
X1506626Y-4193844D03*
G01*
X1970963Y-4073855D03*
G01*
X2100961Y-4073855D03*
G01*
X2100961Y-4193844D03*
G01*
X1970963Y-4193844D03*
G01*
X2435301Y-4073855D03*
G01*
X2565323Y-4073855D03*
G01*
X2565323Y-4193844D03*
G01*
X2435301Y-4193844D03*
G01*
X2899663Y-4073855D03*
G01*
X3029661Y-4073855D03*
G01*
X3029661Y-4193844D03*
G01*
X2899663Y-4193844D03*
M02*
