G04 Layer: TopSolderMaskLayer*
G04 EasyEDA v6.5.15, 2022-09-14 21:09:58*
G04 b6703ba792d845058589b0d9c50fe8b8,8325645c73b1497a9d20913bdd0b9c8b,10*
G04 Gerber Generator version 0.2*
G04 Scale: 100 percent, Rotated: No, Reflected: No *
G04 Dimensions in millimeters *
G04 leading zeros omitted , absolute positions ,4 integer and 5 decimal *
%FSLAX45Y45*%
%MOMM*%

%AMMACRO1*1,1,$1,$2,$3*1,1,$1,$4,$5*1,1,$1,0-$2,0-$3*1,1,$1,0-$4,0-$5*20,1,$1,$2,$3,$4,$5,0*20,1,$1,$4,$5,0-$2,0-$3,0*20,1,$1,0-$2,0-$3,0-$4,0-$5,0*20,1,$1,0-$4,0-$5,$2,$3,0*4,1,4,$2,$3,$4,$5,0-$2,0-$3,0-$4,0-$5,$2,$3,0*%
%ADD10C,2.0828*%
%ADD11MACRO1,0.1016X0.432X-0.4032X-0.432X-0.4032*%
%ADD12MACRO1,0.1016X0.432X0.4032X-0.432X0.4032*%
%ADD13MACRO1,0.1016X0.81X-1.0232X-0.81X-1.0232*%
%ADD14MACRO1,0.1016X0.81X1.0232X-0.81X1.0232*%
%ADD15MACRO1,0.2032X-0.4X0.45X0.4X0.45*%
%ADD16MACRO1,0.1016X-0.4X0.35X0.4X0.35*%
%ADD17MACRO1,0.2032X-0.4X0.35X0.4X0.35*%
%ADD18MACRO1,0.2032X0.8X-0.8X-0.8X-0.8*%
%ADD19MACRO1,0.2032X-0.45X-0.4X-0.45X0.4*%
%ADD20MACRO1,0.2032X0.45X0.4X0.45X-0.4*%
%ADD21MACRO1,0.1016X0.35X0.4X0.35X-0.4*%
%ADD22MACRO1,0.2032X0.35X0.4X0.35X-0.4*%
%ADD23C,2.1016*%
%ADD24MACRO1,0.1016X-0.8999X0.8999X0.8999X0.8999*%
%ADD25C,0.0102*%

%LPD*%
D10*
G01*
X241300Y-889000D03*
G01*
X241300Y-635000D03*
G01*
X241300Y-381000D03*
G01*
X241300Y-127000D03*
G01*
X241300Y127000D03*
G01*
X241300Y381000D03*
G01*
X241300Y635000D03*
G01*
X241300Y889000D03*
D11*
G01*
X1974527Y3936124D03*
D12*
G01*
X1974527Y3785475D03*
D13*
G01*
X4483102Y-3939545D03*
D14*
G01*
X4483102Y-3426449D03*
D11*
G01*
X1770755Y3936124D03*
D12*
G01*
X1770755Y3785475D03*
G36*
X3095243Y3901439D02*
G01*
X3089147Y3901694D01*
X3088640Y3901947D01*
X3082543Y3902963D01*
X3082036Y3903218D01*
X3076193Y3904995D01*
X3075686Y3904995D01*
X3070097Y3907536D01*
X3069590Y3907789D01*
X3064509Y3911092D01*
X3064002Y3911345D01*
X3059175Y3915155D01*
X3058668Y3915410D01*
X3054604Y3919728D01*
X3054095Y3920236D01*
X3050286Y3925062D01*
X3050031Y3925570D01*
X3046984Y3930650D01*
X3046475Y3931157D01*
X3044190Y3936745D01*
X3043936Y3937254D01*
X3042158Y3943095D01*
X3041904Y3943604D01*
X3040888Y3949445D01*
X3040888Y3950207D01*
X3040379Y3956304D01*
X3040379Y4131818D01*
X3040888Y4137913D01*
X3040888Y4138421D01*
X3041904Y4144518D01*
X3042158Y4145026D01*
X3043936Y4150613D01*
X3044190Y4151376D01*
X3046475Y4156710D01*
X3046984Y4157471D01*
X3050031Y4162552D01*
X3050286Y4163060D01*
X3054095Y4167886D01*
X3054604Y4168139D01*
X3058668Y4172457D01*
X3059175Y4172965D01*
X3064002Y4176776D01*
X3064509Y4177029D01*
X3069590Y4180078D01*
X3070097Y4180331D01*
X3075686Y4182871D01*
X3076193Y4183126D01*
X3082036Y4184904D01*
X3082543Y4185157D01*
X3088640Y4186173D01*
X3089147Y4186173D01*
X3095243Y4186681D01*
X3195827Y4186681D01*
X3201924Y4186173D01*
X3202431Y4186173D01*
X3208274Y4185157D01*
X3209036Y4184904D01*
X3214624Y4183126D01*
X3215386Y4182871D01*
X3220720Y4180331D01*
X3221481Y4180078D01*
X3226561Y4177029D01*
X3227070Y4176776D01*
X3231895Y4172965D01*
X3232150Y4172457D01*
X3236468Y4168139D01*
X3236975Y4167886D01*
X3240531Y4163060D01*
X3241040Y4162552D01*
X3244088Y4157471D01*
X3244341Y4156710D01*
X3246881Y4151376D01*
X3247136Y4150613D01*
X3248913Y4145026D01*
X3248913Y4144518D01*
X3250184Y4138421D01*
X3250184Y4137913D01*
X3250691Y4131818D01*
X3250691Y3956304D01*
X3250184Y3950207D01*
X3250184Y3949445D01*
X3248913Y3943604D01*
X3248913Y3943095D01*
X3247136Y3937254D01*
X3246881Y3936745D01*
X3244341Y3931157D01*
X3244088Y3930650D01*
X3241040Y3925570D01*
X3240531Y3925062D01*
X3236975Y3920236D01*
X3231895Y3915155D01*
X3227070Y3911345D01*
X3226561Y3911092D01*
X3221481Y3907789D01*
X3220720Y3907536D01*
X3215386Y3904995D01*
X3214624Y3904995D01*
X3209036Y3903218D01*
X3208274Y3902963D01*
X3202431Y3901947D01*
X3201924Y3901694D01*
X3195827Y3901439D01*
G37*
G36*
X3349243Y3901439D02*
G01*
X3343147Y3901694D01*
X3342640Y3901947D01*
X3336543Y3902963D01*
X3336036Y3903218D01*
X3330193Y3904995D01*
X3329686Y3904995D01*
X3324097Y3907536D01*
X3323590Y3907789D01*
X3318509Y3911092D01*
X3318002Y3911345D01*
X3313175Y3915155D01*
X3312668Y3915410D01*
X3308604Y3919728D01*
X3308095Y3920236D01*
X3304286Y3925062D01*
X3304031Y3925570D01*
X3300984Y3930650D01*
X3300475Y3931157D01*
X3298190Y3936745D01*
X3297936Y3937254D01*
X3296158Y3943095D01*
X3295904Y3943604D01*
X3294888Y3949445D01*
X3294888Y3950207D01*
X3294379Y3956304D01*
X3294379Y4131818D01*
X3294888Y4137913D01*
X3294888Y4138421D01*
X3295904Y4144518D01*
X3296158Y4145026D01*
X3297936Y4150613D01*
X3298190Y4151376D01*
X3300475Y4156710D01*
X3300984Y4157471D01*
X3304031Y4162552D01*
X3304286Y4163060D01*
X3308095Y4167886D01*
X3308604Y4168139D01*
X3312668Y4172457D01*
X3313175Y4172965D01*
X3318002Y4176776D01*
X3318509Y4177029D01*
X3323590Y4180078D01*
X3324097Y4180331D01*
X3329686Y4182871D01*
X3330193Y4183126D01*
X3336036Y4184904D01*
X3336543Y4185157D01*
X3342640Y4186173D01*
X3343147Y4186173D01*
X3349243Y4186681D01*
X3449827Y4186681D01*
X3455924Y4186173D01*
X3456431Y4186173D01*
X3462274Y4185157D01*
X3463036Y4184904D01*
X3468624Y4183126D01*
X3469386Y4182871D01*
X3474720Y4180331D01*
X3475481Y4180078D01*
X3480561Y4177029D01*
X3481070Y4176776D01*
X3485895Y4172965D01*
X3486150Y4172457D01*
X3490468Y4168139D01*
X3490975Y4167886D01*
X3494531Y4163060D01*
X3495040Y4162552D01*
X3498088Y4157471D01*
X3498341Y4156710D01*
X3500881Y4151376D01*
X3501136Y4150613D01*
X3502913Y4145026D01*
X3502913Y4144518D01*
X3504184Y4138421D01*
X3504184Y4137913D01*
X3504691Y4131818D01*
X3504691Y3956304D01*
X3504184Y3950207D01*
X3504184Y3949445D01*
X3502913Y3943604D01*
X3502913Y3943095D01*
X3501136Y3937254D01*
X3500881Y3936745D01*
X3498341Y3931157D01*
X3498088Y3930650D01*
X3495040Y3925570D01*
X3494531Y3925062D01*
X3490975Y3920236D01*
X3485895Y3915155D01*
X3481070Y3911345D01*
X3480561Y3911092D01*
X3475481Y3907789D01*
X3474720Y3907536D01*
X3469386Y3904995D01*
X3468624Y3904995D01*
X3463036Y3903218D01*
X3462274Y3902963D01*
X3456431Y3901947D01*
X3455924Y3901694D01*
X3449827Y3901439D01*
G37*
G36*
X3603243Y3901439D02*
G01*
X3597147Y3901694D01*
X3596640Y3901947D01*
X3590543Y3902963D01*
X3590036Y3903218D01*
X3584193Y3904995D01*
X3583686Y3904995D01*
X3578097Y3907536D01*
X3577590Y3907789D01*
X3572509Y3911092D01*
X3572002Y3911345D01*
X3567175Y3915155D01*
X3566668Y3915410D01*
X3562604Y3919728D01*
X3562095Y3920236D01*
X3558286Y3925062D01*
X3558031Y3925570D01*
X3554984Y3930650D01*
X3554475Y3931157D01*
X3552190Y3936745D01*
X3551936Y3937254D01*
X3550158Y3943095D01*
X3549904Y3943604D01*
X3548888Y3949445D01*
X3548888Y3950207D01*
X3548379Y3956304D01*
X3548379Y4131818D01*
X3548888Y4137913D01*
X3548888Y4138421D01*
X3549904Y4144518D01*
X3550158Y4145026D01*
X3551936Y4150613D01*
X3552190Y4151376D01*
X3554475Y4156710D01*
X3554984Y4157471D01*
X3558031Y4162552D01*
X3558286Y4163060D01*
X3562095Y4167886D01*
X3562604Y4168139D01*
X3566668Y4172457D01*
X3567175Y4172965D01*
X3572002Y4176776D01*
X3572509Y4177029D01*
X3577590Y4180078D01*
X3578097Y4180331D01*
X3583686Y4182871D01*
X3584193Y4183126D01*
X3590036Y4184904D01*
X3590543Y4185157D01*
X3596640Y4186173D01*
X3597147Y4186173D01*
X3603243Y4186681D01*
X3703827Y4186681D01*
X3709924Y4186173D01*
X3710431Y4186173D01*
X3716274Y4185157D01*
X3717036Y4184904D01*
X3722624Y4183126D01*
X3723386Y4182871D01*
X3728720Y4180331D01*
X3729481Y4180078D01*
X3734561Y4177029D01*
X3735070Y4176776D01*
X3739895Y4172965D01*
X3740150Y4172457D01*
X3744468Y4168139D01*
X3744975Y4167886D01*
X3748531Y4163060D01*
X3749040Y4162552D01*
X3752088Y4157471D01*
X3752341Y4156710D01*
X3754881Y4151376D01*
X3755136Y4150613D01*
X3756913Y4145026D01*
X3756913Y4144518D01*
X3758184Y4138421D01*
X3758184Y4137913D01*
X3758691Y4131818D01*
X3758691Y3956304D01*
X3758184Y3950207D01*
X3758184Y3949445D01*
X3756913Y3943604D01*
X3756913Y3943095D01*
X3755136Y3937254D01*
X3754881Y3936745D01*
X3752341Y3931157D01*
X3752088Y3930650D01*
X3749040Y3925570D01*
X3748531Y3925062D01*
X3744975Y3920236D01*
X3739895Y3915155D01*
X3735070Y3911345D01*
X3734561Y3911092D01*
X3729481Y3907789D01*
X3728720Y3907536D01*
X3723386Y3904995D01*
X3722624Y3904995D01*
X3717036Y3903218D01*
X3716274Y3902963D01*
X3710431Y3901947D01*
X3709924Y3901694D01*
X3703827Y3901439D01*
G37*
G36*
X3857243Y3901439D02*
G01*
X3851147Y3901694D01*
X3850640Y3901947D01*
X3844543Y3902963D01*
X3844036Y3903218D01*
X3838193Y3904995D01*
X3837686Y3904995D01*
X3832097Y3907536D01*
X3831590Y3907789D01*
X3826509Y3911092D01*
X3826002Y3911345D01*
X3821175Y3915155D01*
X3820668Y3915410D01*
X3816604Y3919728D01*
X3816095Y3920236D01*
X3812286Y3925062D01*
X3812031Y3925570D01*
X3808984Y3930650D01*
X3808475Y3931157D01*
X3806190Y3936745D01*
X3805936Y3937254D01*
X3804158Y3943095D01*
X3803904Y3943604D01*
X3802888Y3949445D01*
X3802888Y3950207D01*
X3802379Y3956304D01*
X3802379Y4131818D01*
X3802888Y4137913D01*
X3802888Y4138421D01*
X3803904Y4144518D01*
X3804158Y4145026D01*
X3805936Y4150613D01*
X3806190Y4151376D01*
X3808475Y4156710D01*
X3808984Y4157471D01*
X3812031Y4162552D01*
X3812286Y4163060D01*
X3816095Y4167886D01*
X3816604Y4168139D01*
X3820668Y4172457D01*
X3821175Y4172965D01*
X3826002Y4176776D01*
X3826509Y4177029D01*
X3831590Y4180078D01*
X3832097Y4180331D01*
X3837686Y4182871D01*
X3838193Y4183126D01*
X3844036Y4184904D01*
X3844543Y4185157D01*
X3850640Y4186173D01*
X3851147Y4186173D01*
X3857243Y4186681D01*
X3957827Y4186681D01*
X3963924Y4186173D01*
X3964431Y4186173D01*
X3970274Y4185157D01*
X3971036Y4184904D01*
X3976624Y4183126D01*
X3977386Y4182871D01*
X3982720Y4180331D01*
X3983481Y4180078D01*
X3988561Y4177029D01*
X3989070Y4176776D01*
X3993895Y4172965D01*
X3994150Y4172457D01*
X3998468Y4168139D01*
X3998975Y4167886D01*
X4002531Y4163060D01*
X4003040Y4162552D01*
X4006088Y4157471D01*
X4006341Y4156710D01*
X4008881Y4151376D01*
X4009136Y4150613D01*
X4010913Y4145026D01*
X4010913Y4144518D01*
X4012184Y4138421D01*
X4012184Y4137913D01*
X4012691Y4131818D01*
X4012691Y3956304D01*
X4012184Y3950207D01*
X4012184Y3949445D01*
X4010913Y3943604D01*
X4010913Y3943095D01*
X4009136Y3937254D01*
X4008881Y3936745D01*
X4006341Y3931157D01*
X4006088Y3930650D01*
X4003040Y3925570D01*
X4002531Y3925062D01*
X3998975Y3920236D01*
X3993895Y3915155D01*
X3989070Y3911345D01*
X3988561Y3911092D01*
X3983481Y3907789D01*
X3982720Y3907536D01*
X3977386Y3904995D01*
X3976624Y3904995D01*
X3971036Y3903218D01*
X3970274Y3902963D01*
X3964431Y3901947D01*
X3963924Y3901694D01*
X3957827Y3901439D01*
G37*
G36*
X4111243Y3901439D02*
G01*
X4105147Y3901694D01*
X4104640Y3901947D01*
X4098543Y3902963D01*
X4098036Y3903218D01*
X4092193Y3904995D01*
X4091686Y3904995D01*
X4086097Y3907536D01*
X4085590Y3907789D01*
X4080509Y3911092D01*
X4080002Y3911345D01*
X4075175Y3915155D01*
X4074668Y3915410D01*
X4070604Y3919728D01*
X4070095Y3920236D01*
X4066286Y3925062D01*
X4066031Y3925570D01*
X4062984Y3930650D01*
X4062475Y3931157D01*
X4060190Y3936745D01*
X4059936Y3937254D01*
X4058158Y3943095D01*
X4057904Y3943604D01*
X4056888Y3949445D01*
X4056888Y3950207D01*
X4056379Y3956304D01*
X4056379Y4131818D01*
X4056888Y4137913D01*
X4056888Y4138421D01*
X4057904Y4144518D01*
X4058158Y4145026D01*
X4059936Y4150613D01*
X4060190Y4151376D01*
X4062475Y4156710D01*
X4062984Y4157471D01*
X4066031Y4162552D01*
X4066286Y4163060D01*
X4070095Y4167886D01*
X4070604Y4168139D01*
X4074668Y4172457D01*
X4075175Y4172965D01*
X4080002Y4176776D01*
X4080509Y4177029D01*
X4085590Y4180078D01*
X4086097Y4180331D01*
X4091686Y4182871D01*
X4092193Y4183126D01*
X4098036Y4184904D01*
X4098543Y4185157D01*
X4104640Y4186173D01*
X4105147Y4186173D01*
X4111243Y4186681D01*
X4211827Y4186681D01*
X4217924Y4186173D01*
X4218431Y4186173D01*
X4224274Y4185157D01*
X4225036Y4184904D01*
X4230624Y4183126D01*
X4231386Y4182871D01*
X4236720Y4180331D01*
X4237481Y4180078D01*
X4242561Y4177029D01*
X4243070Y4176776D01*
X4247895Y4172965D01*
X4248150Y4172457D01*
X4252468Y4168139D01*
X4252975Y4167886D01*
X4256531Y4163060D01*
X4257040Y4162552D01*
X4260088Y4157471D01*
X4260341Y4156710D01*
X4262881Y4151376D01*
X4263136Y4150613D01*
X4264913Y4145026D01*
X4264913Y4144518D01*
X4266184Y4138421D01*
X4266184Y4137913D01*
X4266438Y4131818D01*
X4266438Y3956304D01*
X4266184Y3950207D01*
X4266184Y3949445D01*
X4264913Y3943604D01*
X4264913Y3943095D01*
X4263136Y3937254D01*
X4262881Y3936745D01*
X4260341Y3931157D01*
X4260088Y3930650D01*
X4257040Y3925570D01*
X4256531Y3925062D01*
X4252975Y3920236D01*
X4247895Y3915155D01*
X4243070Y3911345D01*
X4242561Y3911092D01*
X4237481Y3907789D01*
X4236720Y3907536D01*
X4231386Y3904995D01*
X4230624Y3904995D01*
X4225036Y3903218D01*
X4224274Y3902963D01*
X4218431Y3901947D01*
X4217924Y3901694D01*
X4211827Y3901439D01*
G37*
G36*
X4365243Y3901439D02*
G01*
X4359147Y3901694D01*
X4358640Y3901947D01*
X4352543Y3902963D01*
X4352036Y3903218D01*
X4346193Y3904995D01*
X4345686Y3904995D01*
X4340097Y3907536D01*
X4339590Y3907789D01*
X4334509Y3911092D01*
X4334002Y3911345D01*
X4329175Y3915155D01*
X4328668Y3915410D01*
X4324604Y3919728D01*
X4324095Y3920236D01*
X4320286Y3925062D01*
X4320031Y3925570D01*
X4316984Y3930650D01*
X4316475Y3931157D01*
X4314190Y3936745D01*
X4313936Y3937254D01*
X4312158Y3943095D01*
X4311904Y3943604D01*
X4310888Y3949445D01*
X4310888Y3950207D01*
X4310379Y3956304D01*
X4310379Y4131818D01*
X4310888Y4137913D01*
X4310888Y4138421D01*
X4311904Y4144518D01*
X4312158Y4145026D01*
X4313936Y4150613D01*
X4314190Y4151376D01*
X4316475Y4156710D01*
X4316984Y4157471D01*
X4320031Y4162552D01*
X4320286Y4163060D01*
X4324095Y4167886D01*
X4324604Y4168139D01*
X4328668Y4172457D01*
X4329175Y4172965D01*
X4334002Y4176776D01*
X4334509Y4177029D01*
X4339590Y4180078D01*
X4340097Y4180331D01*
X4345686Y4182871D01*
X4346193Y4183126D01*
X4352036Y4184904D01*
X4352543Y4185157D01*
X4358640Y4186173D01*
X4359147Y4186173D01*
X4365243Y4186681D01*
X4465827Y4186681D01*
X4471924Y4186173D01*
X4472431Y4186173D01*
X4478274Y4185157D01*
X4479036Y4184904D01*
X4484624Y4183126D01*
X4485386Y4182871D01*
X4490720Y4180331D01*
X4491481Y4180078D01*
X4496561Y4177029D01*
X4497070Y4176776D01*
X4501895Y4172965D01*
X4502150Y4172457D01*
X4506468Y4168139D01*
X4506975Y4167886D01*
X4510531Y4163060D01*
X4511040Y4162552D01*
X4514088Y4157471D01*
X4514341Y4156710D01*
X4516881Y4151376D01*
X4517136Y4150613D01*
X4518913Y4145026D01*
X4518913Y4144518D01*
X4520184Y4138421D01*
X4520184Y4137913D01*
X4520438Y4131818D01*
X4520438Y3956304D01*
X4520184Y3950207D01*
X4520184Y3949445D01*
X4518913Y3943604D01*
X4518913Y3943095D01*
X4517136Y3937254D01*
X4516881Y3936745D01*
X4514341Y3931157D01*
X4514088Y3930650D01*
X4511040Y3925570D01*
X4510531Y3925062D01*
X4506975Y3920236D01*
X4501895Y3915155D01*
X4497070Y3911345D01*
X4496561Y3911092D01*
X4491481Y3907789D01*
X4490720Y3907536D01*
X4485386Y3904995D01*
X4484624Y3904995D01*
X4479036Y3903218D01*
X4478274Y3902963D01*
X4472431Y3901947D01*
X4471924Y3901694D01*
X4465827Y3901439D01*
G37*
G36*
X4619243Y3901439D02*
G01*
X4613147Y3901694D01*
X4612640Y3901947D01*
X4606543Y3902963D01*
X4606036Y3903218D01*
X4600193Y3904995D01*
X4599686Y3904995D01*
X4594097Y3907536D01*
X4593590Y3907789D01*
X4588509Y3911092D01*
X4588002Y3911345D01*
X4583175Y3915155D01*
X4582668Y3915410D01*
X4578350Y3919728D01*
X4578095Y3920236D01*
X4574286Y3925062D01*
X4574031Y3925570D01*
X4570984Y3930650D01*
X4570475Y3931157D01*
X4568190Y3936745D01*
X4567936Y3937254D01*
X4566158Y3943095D01*
X4565904Y3943604D01*
X4564888Y3949445D01*
X4564888Y3950207D01*
X4564379Y3956304D01*
X4564379Y4131818D01*
X4564888Y4137913D01*
X4564888Y4138421D01*
X4565904Y4144518D01*
X4566158Y4145026D01*
X4567936Y4150613D01*
X4568190Y4151376D01*
X4570475Y4156710D01*
X4570984Y4157471D01*
X4574031Y4162552D01*
X4574286Y4163060D01*
X4578095Y4167886D01*
X4583175Y4172965D01*
X4588002Y4176776D01*
X4588509Y4177029D01*
X4593590Y4180078D01*
X4594097Y4180331D01*
X4599686Y4182871D01*
X4600193Y4183126D01*
X4606036Y4184904D01*
X4606543Y4185157D01*
X4612640Y4186173D01*
X4613147Y4186173D01*
X4619243Y4186681D01*
X4719827Y4186681D01*
X4725924Y4186173D01*
X4726431Y4186173D01*
X4732274Y4185157D01*
X4733036Y4184904D01*
X4738624Y4183126D01*
X4739386Y4182871D01*
X4744720Y4180331D01*
X4745481Y4180078D01*
X4750561Y4177029D01*
X4751070Y4176776D01*
X4755895Y4172965D01*
X4756150Y4172457D01*
X4760468Y4168139D01*
X4760975Y4167886D01*
X4764531Y4163060D01*
X4765040Y4162552D01*
X4768088Y4157471D01*
X4768341Y4156710D01*
X4770881Y4151376D01*
X4771136Y4150613D01*
X4772913Y4145026D01*
X4772913Y4144518D01*
X4774184Y4138421D01*
X4774184Y4137913D01*
X4774438Y4131818D01*
X4774438Y3956304D01*
X4774184Y3950207D01*
X4774184Y3949445D01*
X4772913Y3943604D01*
X4772913Y3943095D01*
X4771136Y3937254D01*
X4770881Y3936745D01*
X4768341Y3931157D01*
X4768088Y3930650D01*
X4765040Y3925570D01*
X4764531Y3925062D01*
X4760975Y3920236D01*
X4755895Y3915155D01*
X4751070Y3911345D01*
X4750561Y3911092D01*
X4745481Y3907789D01*
X4744720Y3907536D01*
X4739386Y3904995D01*
X4738624Y3904995D01*
X4733036Y3903218D01*
X4732274Y3902963D01*
X4726431Y3901947D01*
X4725924Y3901694D01*
X4719827Y3901439D01*
G37*
G36*
X3095243Y2284984D02*
G01*
X3089147Y2285237D01*
X3088640Y2285492D01*
X3082543Y2286507D01*
X3082036Y2286507D01*
X3076193Y2288539D01*
X3075686Y2288539D01*
X3070097Y2291079D01*
X3069590Y2291334D01*
X3064509Y2294381D01*
X3064002Y2294889D01*
X3059175Y2298700D01*
X3058668Y2298954D01*
X3054604Y2303271D01*
X3054095Y2303779D01*
X3050286Y2308352D01*
X3050031Y2308860D01*
X3046984Y2314194D01*
X3046475Y2314702D01*
X3044190Y2320289D01*
X3043936Y2320797D01*
X3042158Y2326639D01*
X3041904Y2327147D01*
X3040888Y2332989D01*
X3040888Y2333752D01*
X3040379Y2339594D01*
X3040379Y2515362D01*
X3040888Y2521204D01*
X3040888Y2521965D01*
X3041904Y2527807D01*
X3042158Y2528570D01*
X3043936Y2534157D01*
X3044190Y2534920D01*
X3046475Y2540254D01*
X3046984Y2540762D01*
X3050031Y2546095D01*
X3050286Y2546604D01*
X3054095Y2551176D01*
X3054604Y2551684D01*
X3058668Y2556002D01*
X3059175Y2556510D01*
X3064002Y2560065D01*
X3064509Y2560573D01*
X3069590Y2563621D01*
X3070097Y2563876D01*
X3075686Y2566415D01*
X3076193Y2566670D01*
X3082036Y2568447D01*
X3082543Y2568447D01*
X3088640Y2569718D01*
X3089147Y2569718D01*
X3095243Y2569971D01*
X3195827Y2569971D01*
X3201924Y2569718D01*
X3202431Y2569718D01*
X3208274Y2568447D01*
X3209036Y2568447D01*
X3214624Y2566670D01*
X3215386Y2566415D01*
X3220720Y2563876D01*
X3221481Y2563621D01*
X3226561Y2560573D01*
X3227070Y2560065D01*
X3231895Y2556510D01*
X3232150Y2556002D01*
X3236975Y2551176D01*
X3240531Y2546604D01*
X3241040Y2546095D01*
X3244088Y2540762D01*
X3244341Y2540254D01*
X3246881Y2534920D01*
X3247136Y2534157D01*
X3248913Y2528570D01*
X3248913Y2527807D01*
X3250184Y2521965D01*
X3250184Y2521457D01*
X3250691Y2515362D01*
X3250691Y2339594D01*
X3250184Y2333752D01*
X3250184Y2332989D01*
X3248913Y2327147D01*
X3248913Y2326639D01*
X3247136Y2320797D01*
X3246881Y2320289D01*
X3244341Y2314702D01*
X3244088Y2314194D01*
X3241040Y2308860D01*
X3240531Y2308352D01*
X3236975Y2303779D01*
X3231895Y2298700D01*
X3227070Y2294889D01*
X3226561Y2294381D01*
X3221481Y2291334D01*
X3220720Y2291079D01*
X3215386Y2288539D01*
X3214624Y2288539D01*
X3209036Y2286507D01*
X3208274Y2286507D01*
X3202431Y2285492D01*
X3201924Y2285237D01*
X3195827Y2284984D01*
G37*
G36*
X3349243Y2284984D02*
G01*
X3343147Y2285237D01*
X3342640Y2285492D01*
X3336543Y2286507D01*
X3336036Y2286507D01*
X3330193Y2288539D01*
X3329686Y2288539D01*
X3324097Y2291079D01*
X3323590Y2291334D01*
X3318509Y2294381D01*
X3318002Y2294889D01*
X3313175Y2298700D01*
X3312668Y2298954D01*
X3308604Y2303271D01*
X3308095Y2303779D01*
X3304286Y2308352D01*
X3304031Y2308860D01*
X3300984Y2314194D01*
X3300475Y2314702D01*
X3298190Y2320289D01*
X3297936Y2320797D01*
X3296158Y2326639D01*
X3295904Y2327147D01*
X3294888Y2332989D01*
X3294888Y2333752D01*
X3294379Y2339594D01*
X3294379Y2515362D01*
X3294888Y2521204D01*
X3294888Y2521965D01*
X3295904Y2527807D01*
X3296158Y2528570D01*
X3297936Y2534157D01*
X3298190Y2534920D01*
X3300475Y2540254D01*
X3300984Y2540762D01*
X3304031Y2546095D01*
X3304286Y2546604D01*
X3308095Y2551176D01*
X3308604Y2551684D01*
X3312668Y2556002D01*
X3313175Y2556510D01*
X3318002Y2560065D01*
X3318509Y2560573D01*
X3323590Y2563621D01*
X3324097Y2563876D01*
X3329686Y2566415D01*
X3330193Y2566670D01*
X3336036Y2568447D01*
X3336543Y2568447D01*
X3342640Y2569718D01*
X3343147Y2569718D01*
X3349243Y2569971D01*
X3449827Y2569971D01*
X3455924Y2569718D01*
X3456431Y2569718D01*
X3462274Y2568447D01*
X3463036Y2568447D01*
X3468624Y2566670D01*
X3469386Y2566415D01*
X3474720Y2563876D01*
X3475481Y2563621D01*
X3480561Y2560573D01*
X3481070Y2560065D01*
X3485895Y2556510D01*
X3486150Y2556002D01*
X3490975Y2551176D01*
X3494531Y2546604D01*
X3495040Y2546095D01*
X3498088Y2540762D01*
X3498341Y2540254D01*
X3500881Y2534920D01*
X3501136Y2534157D01*
X3502913Y2528570D01*
X3502913Y2527807D01*
X3504184Y2521965D01*
X3504184Y2521457D01*
X3504691Y2515362D01*
X3504691Y2339594D01*
X3504184Y2333752D01*
X3504184Y2332989D01*
X3502913Y2327147D01*
X3502913Y2326639D01*
X3501136Y2320797D01*
X3500881Y2320289D01*
X3498341Y2314702D01*
X3498088Y2314194D01*
X3495040Y2308860D01*
X3494531Y2308352D01*
X3490975Y2303779D01*
X3485895Y2298700D01*
X3481070Y2294889D01*
X3480561Y2294381D01*
X3475481Y2291334D01*
X3474720Y2291079D01*
X3469386Y2288539D01*
X3468624Y2288539D01*
X3463036Y2286507D01*
X3462274Y2286507D01*
X3456431Y2285492D01*
X3455924Y2285237D01*
X3449827Y2284984D01*
G37*
G36*
X3603243Y2284984D02*
G01*
X3597147Y2285237D01*
X3596640Y2285492D01*
X3590543Y2286507D01*
X3590036Y2286507D01*
X3584193Y2288539D01*
X3583686Y2288539D01*
X3578097Y2291079D01*
X3577590Y2291334D01*
X3572509Y2294381D01*
X3572002Y2294889D01*
X3567175Y2298700D01*
X3566668Y2298954D01*
X3562604Y2303271D01*
X3562095Y2303779D01*
X3558286Y2308352D01*
X3558031Y2308860D01*
X3554984Y2314194D01*
X3554475Y2314702D01*
X3552190Y2320289D01*
X3551936Y2320797D01*
X3550158Y2326639D01*
X3549904Y2327147D01*
X3548888Y2332989D01*
X3548888Y2333752D01*
X3548379Y2339594D01*
X3548379Y2515362D01*
X3548888Y2521204D01*
X3548888Y2521965D01*
X3549904Y2527807D01*
X3550158Y2528570D01*
X3551936Y2534157D01*
X3552190Y2534920D01*
X3554475Y2540254D01*
X3554984Y2540762D01*
X3558031Y2546095D01*
X3558286Y2546604D01*
X3562095Y2551176D01*
X3562604Y2551684D01*
X3566668Y2556002D01*
X3567175Y2556510D01*
X3572002Y2560065D01*
X3572509Y2560573D01*
X3577590Y2563621D01*
X3578097Y2563876D01*
X3583686Y2566415D01*
X3584193Y2566670D01*
X3590036Y2568447D01*
X3590543Y2568447D01*
X3596640Y2569718D01*
X3597147Y2569718D01*
X3603243Y2569971D01*
X3703827Y2569971D01*
X3709924Y2569718D01*
X3710431Y2569718D01*
X3716274Y2568447D01*
X3717036Y2568447D01*
X3722624Y2566670D01*
X3723386Y2566415D01*
X3728720Y2563876D01*
X3729481Y2563621D01*
X3734561Y2560573D01*
X3735070Y2560065D01*
X3739895Y2556510D01*
X3740150Y2556002D01*
X3744975Y2551176D01*
X3748531Y2546604D01*
X3749040Y2546095D01*
X3752088Y2540762D01*
X3752341Y2540254D01*
X3754881Y2534920D01*
X3755136Y2534157D01*
X3756913Y2528570D01*
X3756913Y2527807D01*
X3758184Y2521965D01*
X3758184Y2521457D01*
X3758691Y2515362D01*
X3758691Y2339594D01*
X3758184Y2333752D01*
X3758184Y2332989D01*
X3756913Y2327147D01*
X3756913Y2326639D01*
X3755136Y2320797D01*
X3754881Y2320289D01*
X3752341Y2314702D01*
X3752088Y2314194D01*
X3749040Y2308860D01*
X3748531Y2308352D01*
X3744975Y2303779D01*
X3739895Y2298700D01*
X3735070Y2294889D01*
X3734561Y2294381D01*
X3729481Y2291334D01*
X3728720Y2291079D01*
X3723386Y2288539D01*
X3722624Y2288539D01*
X3717036Y2286507D01*
X3716274Y2286507D01*
X3710431Y2285492D01*
X3709924Y2285237D01*
X3703827Y2284984D01*
G37*
G36*
X3857243Y2284984D02*
G01*
X3851147Y2285237D01*
X3850640Y2285492D01*
X3844543Y2286507D01*
X3844036Y2286507D01*
X3838193Y2288539D01*
X3837686Y2288539D01*
X3832097Y2291079D01*
X3831590Y2291334D01*
X3826509Y2294381D01*
X3826002Y2294889D01*
X3821175Y2298700D01*
X3820668Y2298954D01*
X3816604Y2303271D01*
X3816095Y2303779D01*
X3812286Y2308352D01*
X3812031Y2308860D01*
X3808984Y2314194D01*
X3808475Y2314702D01*
X3806190Y2320289D01*
X3805936Y2320797D01*
X3804158Y2326639D01*
X3803904Y2327147D01*
X3802888Y2332989D01*
X3802888Y2333752D01*
X3802379Y2339594D01*
X3802379Y2515362D01*
X3802888Y2521457D01*
X3802888Y2521965D01*
X3803904Y2527807D01*
X3804158Y2528570D01*
X3805936Y2534157D01*
X3806190Y2534920D01*
X3808475Y2540254D01*
X3808984Y2540762D01*
X3812031Y2546095D01*
X3812286Y2546604D01*
X3816095Y2551176D01*
X3816604Y2551684D01*
X3820668Y2556002D01*
X3821175Y2556510D01*
X3826002Y2560065D01*
X3826509Y2560573D01*
X3831590Y2563621D01*
X3832097Y2563876D01*
X3837686Y2566415D01*
X3838193Y2566670D01*
X3844036Y2568447D01*
X3844543Y2568447D01*
X3850640Y2569718D01*
X3851147Y2569718D01*
X3857243Y2569971D01*
X3957827Y2569971D01*
X3963924Y2569718D01*
X3964431Y2569718D01*
X3970274Y2568447D01*
X3971036Y2568447D01*
X3976624Y2566670D01*
X3977386Y2566415D01*
X3982720Y2563876D01*
X3983481Y2563621D01*
X3988561Y2560573D01*
X3989070Y2560065D01*
X3993895Y2556510D01*
X3994150Y2556002D01*
X3998975Y2551176D01*
X4002531Y2546604D01*
X4003040Y2546095D01*
X4006088Y2540762D01*
X4006341Y2540254D01*
X4008881Y2534920D01*
X4009136Y2534157D01*
X4010913Y2528570D01*
X4010913Y2527807D01*
X4012184Y2521965D01*
X4012184Y2521457D01*
X4012691Y2515362D01*
X4012691Y2339594D01*
X4012184Y2333752D01*
X4012184Y2332989D01*
X4010913Y2327147D01*
X4010913Y2326639D01*
X4009136Y2320797D01*
X4008881Y2320289D01*
X4006341Y2314702D01*
X4006088Y2314194D01*
X4003040Y2308860D01*
X4002531Y2308352D01*
X3998975Y2303779D01*
X3993895Y2298700D01*
X3989070Y2294889D01*
X3988561Y2294381D01*
X3983481Y2291334D01*
X3982720Y2291079D01*
X3977386Y2288539D01*
X3976624Y2288539D01*
X3971036Y2286507D01*
X3970274Y2286507D01*
X3964431Y2285492D01*
X3963924Y2285237D01*
X3957827Y2284984D01*
G37*
G36*
X4111243Y2284984D02*
G01*
X4105147Y2285237D01*
X4104640Y2285492D01*
X4098543Y2286507D01*
X4098036Y2286507D01*
X4092193Y2288539D01*
X4091686Y2288539D01*
X4086097Y2291079D01*
X4085590Y2291334D01*
X4080509Y2294381D01*
X4080002Y2294889D01*
X4075175Y2298700D01*
X4074668Y2298954D01*
X4070604Y2303271D01*
X4070095Y2303779D01*
X4066286Y2308352D01*
X4066031Y2308860D01*
X4062984Y2314194D01*
X4062475Y2314702D01*
X4060190Y2320289D01*
X4059936Y2320797D01*
X4058158Y2326639D01*
X4057904Y2327147D01*
X4056888Y2332989D01*
X4056888Y2333752D01*
X4056379Y2339594D01*
X4056379Y2515362D01*
X4056888Y2521457D01*
X4056888Y2521965D01*
X4057904Y2527807D01*
X4058158Y2528570D01*
X4059936Y2534157D01*
X4060190Y2534920D01*
X4062475Y2540254D01*
X4062984Y2540762D01*
X4066031Y2546095D01*
X4066286Y2546604D01*
X4070095Y2551176D01*
X4070604Y2551684D01*
X4074668Y2556002D01*
X4075175Y2556510D01*
X4080002Y2560065D01*
X4080509Y2560573D01*
X4085590Y2563621D01*
X4086097Y2563876D01*
X4091686Y2566415D01*
X4092193Y2566670D01*
X4098036Y2568447D01*
X4098543Y2568447D01*
X4104640Y2569718D01*
X4105147Y2569718D01*
X4111243Y2569971D01*
X4211827Y2569971D01*
X4217924Y2569718D01*
X4218431Y2569718D01*
X4224274Y2568447D01*
X4225036Y2568447D01*
X4230624Y2566670D01*
X4231386Y2566415D01*
X4236720Y2563876D01*
X4237481Y2563621D01*
X4242561Y2560573D01*
X4243070Y2560065D01*
X4247895Y2556510D01*
X4248150Y2556002D01*
X4252975Y2551176D01*
X4256531Y2546604D01*
X4257040Y2546095D01*
X4260088Y2540762D01*
X4260341Y2540254D01*
X4262881Y2534920D01*
X4263136Y2534157D01*
X4264913Y2528570D01*
X4264913Y2527807D01*
X4266184Y2521965D01*
X4266184Y2521204D01*
X4266438Y2515362D01*
X4266438Y2339594D01*
X4266184Y2333752D01*
X4266184Y2332989D01*
X4264913Y2327147D01*
X4264913Y2326639D01*
X4263136Y2320797D01*
X4262881Y2320289D01*
X4260341Y2314702D01*
X4260088Y2314194D01*
X4257040Y2308860D01*
X4256531Y2308352D01*
X4252975Y2303779D01*
X4247895Y2298700D01*
X4243070Y2294889D01*
X4242561Y2294381D01*
X4237481Y2291334D01*
X4236720Y2291079D01*
X4231386Y2288539D01*
X4230624Y2288539D01*
X4225036Y2286507D01*
X4224274Y2286507D01*
X4218431Y2285492D01*
X4217924Y2285237D01*
X4211827Y2284984D01*
G37*
G36*
X4365243Y2284984D02*
G01*
X4359147Y2285237D01*
X4358640Y2285492D01*
X4352543Y2286507D01*
X4352036Y2286507D01*
X4346193Y2288539D01*
X4345686Y2288539D01*
X4340097Y2291079D01*
X4339590Y2291334D01*
X4334509Y2294381D01*
X4334002Y2294889D01*
X4329175Y2298700D01*
X4328668Y2298954D01*
X4324604Y2303271D01*
X4324095Y2303779D01*
X4320286Y2308352D01*
X4320031Y2308860D01*
X4316984Y2314194D01*
X4316475Y2314702D01*
X4314190Y2320289D01*
X4313936Y2320797D01*
X4312158Y2326639D01*
X4311904Y2327147D01*
X4310888Y2332989D01*
X4310888Y2333752D01*
X4310379Y2339594D01*
X4310379Y2515362D01*
X4310888Y2521457D01*
X4310888Y2521965D01*
X4311904Y2527807D01*
X4312158Y2528570D01*
X4313936Y2534157D01*
X4314190Y2534920D01*
X4316475Y2540254D01*
X4316984Y2540762D01*
X4320031Y2546095D01*
X4320286Y2546604D01*
X4324095Y2551176D01*
X4324604Y2551684D01*
X4328668Y2556002D01*
X4329175Y2556510D01*
X4334002Y2560065D01*
X4334509Y2560573D01*
X4339590Y2563621D01*
X4340097Y2563876D01*
X4345686Y2566415D01*
X4346193Y2566670D01*
X4352036Y2568447D01*
X4352543Y2568447D01*
X4358640Y2569718D01*
X4359147Y2569718D01*
X4365243Y2569971D01*
X4465827Y2569971D01*
X4471924Y2569718D01*
X4472431Y2569718D01*
X4478274Y2568447D01*
X4479036Y2568447D01*
X4484624Y2566670D01*
X4485386Y2566415D01*
X4490720Y2563876D01*
X4491481Y2563621D01*
X4496561Y2560573D01*
X4497070Y2560065D01*
X4501895Y2556510D01*
X4502150Y2556002D01*
X4506975Y2551176D01*
X4510531Y2546604D01*
X4511040Y2546095D01*
X4514088Y2540762D01*
X4514341Y2540254D01*
X4516881Y2534920D01*
X4517136Y2534157D01*
X4518913Y2528570D01*
X4518913Y2527807D01*
X4520184Y2521965D01*
X4520184Y2521204D01*
X4520438Y2515362D01*
X4520438Y2339594D01*
X4520184Y2333752D01*
X4520184Y2332989D01*
X4518913Y2327147D01*
X4518913Y2326639D01*
X4517136Y2320797D01*
X4516881Y2320289D01*
X4514341Y2314702D01*
X4514088Y2314194D01*
X4511040Y2308860D01*
X4510531Y2308352D01*
X4506975Y2303779D01*
X4501895Y2298700D01*
X4497070Y2294889D01*
X4496561Y2294381D01*
X4491481Y2291334D01*
X4490720Y2291079D01*
X4485386Y2288539D01*
X4484624Y2288539D01*
X4479036Y2286507D01*
X4478274Y2286507D01*
X4472431Y2285492D01*
X4471924Y2285237D01*
X4465827Y2284984D01*
G37*
G36*
X4619243Y2284984D02*
G01*
X4613147Y2285237D01*
X4612640Y2285492D01*
X4606543Y2286507D01*
X4606036Y2286507D01*
X4600193Y2288539D01*
X4599686Y2288539D01*
X4594097Y2291079D01*
X4593590Y2291334D01*
X4588509Y2294381D01*
X4588002Y2294889D01*
X4583175Y2298700D01*
X4582668Y2298954D01*
X4578350Y2303271D01*
X4578095Y2303779D01*
X4574286Y2308352D01*
X4574031Y2308860D01*
X4570984Y2314194D01*
X4570475Y2314702D01*
X4568190Y2320289D01*
X4567936Y2320797D01*
X4566158Y2326639D01*
X4565904Y2327147D01*
X4564888Y2332989D01*
X4564888Y2333752D01*
X4564379Y2339594D01*
X4564379Y2515362D01*
X4564888Y2521457D01*
X4564888Y2521965D01*
X4565904Y2527807D01*
X4566158Y2528570D01*
X4567936Y2534157D01*
X4568190Y2534920D01*
X4570475Y2540254D01*
X4570984Y2540762D01*
X4574031Y2546095D01*
X4574286Y2546604D01*
X4578095Y2551176D01*
X4578350Y2551684D01*
X4583175Y2556510D01*
X4588002Y2560065D01*
X4588509Y2560573D01*
X4593590Y2563621D01*
X4594097Y2563876D01*
X4599686Y2566415D01*
X4600193Y2566670D01*
X4606036Y2568447D01*
X4606543Y2568447D01*
X4612640Y2569718D01*
X4613147Y2569718D01*
X4619243Y2569971D01*
X4719827Y2569971D01*
X4725924Y2569718D01*
X4726431Y2569718D01*
X4732274Y2568447D01*
X4733036Y2568447D01*
X4738624Y2566670D01*
X4739386Y2566415D01*
X4744720Y2563876D01*
X4745481Y2563621D01*
X4750561Y2560573D01*
X4751070Y2560065D01*
X4755895Y2556510D01*
X4756150Y2556002D01*
X4760975Y2551176D01*
X4764531Y2546604D01*
X4765040Y2546095D01*
X4768088Y2540762D01*
X4768341Y2540254D01*
X4770881Y2534920D01*
X4771136Y2534157D01*
X4772913Y2528570D01*
X4772913Y2527807D01*
X4774184Y2521965D01*
X4774184Y2521204D01*
X4774438Y2515362D01*
X4774438Y2339594D01*
X4774184Y2333752D01*
X4774184Y2332989D01*
X4772913Y2327147D01*
X4772913Y2326639D01*
X4771136Y2320797D01*
X4770881Y2320289D01*
X4768341Y2314702D01*
X4768088Y2314194D01*
X4765040Y2308860D01*
X4764531Y2308352D01*
X4760975Y2303779D01*
X4755895Y2298700D01*
X4751070Y2294889D01*
X4750561Y2294381D01*
X4745481Y2291334D01*
X4744720Y2291079D01*
X4739386Y2288539D01*
X4738624Y2288539D01*
X4733036Y2286507D01*
X4732274Y2286507D01*
X4726431Y2285492D01*
X4725924Y2285237D01*
X4719827Y2284984D01*
G37*
D15*
G01*
X3359000Y-3797300D03*
G01*
X3498999Y-3797300D03*
D16*
G01*
X3363998Y-4073850D03*
D17*
G01*
X3494001Y-4073850D03*
G01*
X3494001Y-4193849D03*
D16*
G01*
X3363998Y-4193849D03*
D18*
G01*
X1613916Y-1196848D03*
G01*
X1199896Y-1476248D03*
D19*
G01*
X2184400Y3790800D03*
G01*
X2184400Y3930799D03*
D20*
G01*
X4749800Y-2736700D03*
G01*
X4749800Y-2876699D03*
D15*
G01*
X1492100Y-3797300D03*
G01*
X1632099Y-3797300D03*
G01*
X1962000Y-3797300D03*
G01*
X2101999Y-3797300D03*
G01*
X2429995Y-3797300D03*
G01*
X2569994Y-3797300D03*
G01*
X2901800Y-3797300D03*
G01*
X3041799Y-3797300D03*
D21*
G01*
X4492299Y-2741698D03*
D22*
G01*
X4492299Y-2871701D03*
G01*
X4372300Y-2871701D03*
D21*
G01*
X4372300Y-2741698D03*
D16*
G01*
X1506623Y-4073850D03*
D17*
G01*
X1636626Y-4073850D03*
G01*
X1636626Y-4193849D03*
D16*
G01*
X1506623Y-4193849D03*
G01*
X1970968Y-4073850D03*
D17*
G01*
X2100971Y-4073850D03*
G01*
X2100971Y-4193849D03*
D16*
G01*
X1970968Y-4193849D03*
G01*
X2435311Y-4073850D03*
D17*
G01*
X2565313Y-4073850D03*
G01*
X2565313Y-4193849D03*
D16*
G01*
X2435311Y-4193849D03*
G01*
X2899656Y-4073850D03*
D17*
G01*
X3029658Y-4073850D03*
G01*
X3029658Y-4193849D03*
D16*
G01*
X2899656Y-4193849D03*
D11*
G01*
X955675Y3936124D03*
D12*
G01*
X955675Y3785475D03*
D11*
G01*
X1159446Y3936124D03*
D12*
G01*
X1159446Y3785475D03*
D11*
G01*
X1363215Y3936124D03*
D12*
G01*
X1363215Y3785475D03*
D11*
G01*
X1566986Y3936124D03*
D12*
G01*
X1566986Y3785475D03*
D18*
G01*
X1613916Y2269743D03*
G01*
X1199896Y1990343D03*
G01*
X1613916Y536448D03*
G01*
X1199896Y257048D03*
G01*
X1613916Y-2930143D03*
G01*
X1199896Y-3209543D03*
D23*
G01*
X2755900Y-2552700D03*
G01*
X2755900Y-2806700D03*
D24*
G01*
X2755900Y-3060700D03*
M02*
