G04 Layer: BottomSilkscreenLayer*
G04 EasyEDA v6.5.15, 2022-09-14 21:09:58*
G04 b6703ba792d845058589b0d9c50fe8b8,8325645c73b1497a9d20913bdd0b9c8b,10*
G04 Gerber Generator version 0.2*
G04 Scale: 100 percent, Rotated: No, Reflected: No *
G04 Dimensions in millimeters *
G04 leading zeros omitted , absolute positions ,4 integer and 5 decimal *
%FSLAX45Y45*%
%MOMM*%

%ADD10C,0.1524*%
%ADD11C,0.2032*%

%LPD*%
D10*
X660400Y944326D02*
G01*
X660400Y867963D01*
X660400Y944326D02*
G01*
X627672Y944326D01*
X616762Y940691D01*
X613128Y937054D01*
X609490Y929782D01*
X609490Y922510D01*
X613128Y915235D01*
X616762Y911600D01*
X627672Y907963D01*
X660400Y907963D02*
G01*
X627672Y907963D01*
X616762Y904326D01*
X613128Y900691D01*
X609490Y893417D01*
X609490Y882510D01*
X613128Y875235D01*
X616762Y871601D01*
X627672Y867963D01*
X660400Y867963D01*
X585490Y944326D02*
G01*
X585490Y867963D01*
X585490Y867963D02*
G01*
X541855Y867963D01*
X660400Y690326D02*
G01*
X660400Y613963D01*
X660400Y690326D02*
G01*
X627672Y690326D01*
X616762Y686691D01*
X613128Y683054D01*
X609490Y675782D01*
X609490Y668510D01*
X613128Y661235D01*
X616762Y657600D01*
X627672Y653963D01*
X660400Y653963D01*
X634946Y653963D02*
G01*
X609490Y613963D01*
X534581Y679416D02*
G01*
X541855Y686691D01*
X552764Y690326D01*
X567309Y690326D01*
X578218Y686691D01*
X585490Y679416D01*
X585490Y672144D01*
X581855Y664872D01*
X578218Y661235D01*
X570946Y657600D01*
X549127Y650326D01*
X541855Y646691D01*
X538218Y643054D01*
X534581Y635782D01*
X534581Y624873D01*
X541855Y617601D01*
X552764Y613963D01*
X567309Y613963D01*
X578218Y617601D01*
X585490Y624873D01*
X485127Y690326D02*
G01*
X485127Y613963D01*
X510583Y690326D02*
G01*
X459673Y690326D01*
X660400Y436326D02*
G01*
X660400Y359963D01*
X660400Y436326D02*
G01*
X634946Y436326D01*
X624037Y432691D01*
X616762Y425416D01*
X613128Y418144D01*
X609490Y407235D01*
X609490Y389054D01*
X613128Y378145D01*
X616762Y370873D01*
X624037Y363601D01*
X634946Y359963D01*
X660400Y359963D01*
X530946Y418144D02*
G01*
X534581Y425416D01*
X541855Y432691D01*
X549127Y436326D01*
X563671Y436326D01*
X570946Y432691D01*
X578218Y425416D01*
X581855Y418144D01*
X585490Y407235D01*
X585490Y389054D01*
X581855Y378145D01*
X578218Y370873D01*
X570946Y363601D01*
X563671Y359963D01*
X549127Y359963D01*
X541855Y363601D01*
X534581Y370873D01*
X530946Y378145D01*
X605853Y138744D02*
G01*
X609490Y146016D01*
X616762Y153291D01*
X624037Y156926D01*
X638581Y156926D01*
X645853Y153291D01*
X653127Y146016D01*
X656762Y138744D01*
X660400Y127835D01*
X660400Y109654D01*
X656762Y98745D01*
X653127Y91473D01*
X645853Y84201D01*
X638581Y80563D01*
X624037Y80563D01*
X616762Y84201D01*
X609490Y91473D01*
X605853Y98745D01*
X530946Y146016D02*
G01*
X538218Y153291D01*
X549127Y156926D01*
X563671Y156926D01*
X574581Y153291D01*
X581855Y146016D01*
X581855Y138744D01*
X578218Y131472D01*
X574581Y127835D01*
X567309Y124200D01*
X545490Y116926D01*
X538218Y113291D01*
X534581Y109654D01*
X530946Y102382D01*
X530946Y91473D01*
X538218Y84201D01*
X549127Y80563D01*
X563671Y80563D01*
X574581Y84201D01*
X581855Y91473D01*
X605853Y-102555D02*
G01*
X609490Y-95283D01*
X616762Y-88008D01*
X624037Y-84373D01*
X638581Y-84373D01*
X645853Y-88008D01*
X653127Y-95283D01*
X656762Y-102555D01*
X660400Y-113464D01*
X660400Y-131645D01*
X656762Y-142554D01*
X653127Y-149826D01*
X645853Y-157098D01*
X638581Y-160736D01*
X624037Y-160736D01*
X616762Y-157098D01*
X609490Y-149826D01*
X605853Y-142554D01*
X581855Y-84373D02*
G01*
X581855Y-160736D01*
X581855Y-160736D02*
G01*
X538218Y-160736D01*
X514217Y-84373D02*
G01*
X514217Y-160736D01*
X463308Y-84373D02*
G01*
X514217Y-135282D01*
X496036Y-117099D02*
G01*
X463308Y-160736D01*
X660400Y-338373D02*
G01*
X660400Y-414736D01*
X660400Y-338373D02*
G01*
X634946Y-338373D01*
X624037Y-342008D01*
X616762Y-349283D01*
X613128Y-356555D01*
X609490Y-367464D01*
X609490Y-385645D01*
X613128Y-396554D01*
X616762Y-403826D01*
X624037Y-411098D01*
X634946Y-414736D01*
X660400Y-414736D01*
X585490Y-338373D02*
G01*
X585490Y-414736D01*
X561489Y-338373D02*
G01*
X561489Y-414736D01*
X561489Y-338373D02*
G01*
X510583Y-414736D01*
X510583Y-338373D02*
G01*
X510583Y-414736D01*
X618553Y-610555D02*
G01*
X622190Y-603283D01*
X629462Y-596008D01*
X636737Y-592373D01*
X651281Y-592373D01*
X658553Y-596008D01*
X665827Y-603283D01*
X669462Y-610555D01*
X673100Y-621464D01*
X673100Y-639645D01*
X669462Y-650554D01*
X665827Y-657826D01*
X658553Y-665098D01*
X651281Y-668736D01*
X636737Y-668736D01*
X629462Y-665098D01*
X622190Y-657826D01*
X618553Y-650554D01*
X618553Y-639645D01*
X636737Y-639645D02*
G01*
X618553Y-639645D01*
X594555Y-592373D02*
G01*
X594555Y-668736D01*
X594555Y-592373D02*
G01*
X543646Y-668736D01*
X543646Y-592373D02*
G01*
X543646Y-668736D01*
X519645Y-592373D02*
G01*
X519645Y-668736D01*
X519645Y-592373D02*
G01*
X494190Y-592373D01*
X483283Y-596008D01*
X476008Y-603283D01*
X472373Y-610555D01*
X468736Y-621464D01*
X468736Y-639645D01*
X472373Y-650554D01*
X476008Y-657826D01*
X483283Y-665098D01*
X494190Y-668736D01*
X519645Y-668736D01*
X653127Y-859073D02*
G01*
X613128Y-859073D01*
X634946Y-888164D01*
X624037Y-888164D01*
X616762Y-891799D01*
X613128Y-895436D01*
X609490Y-906345D01*
X609490Y-913617D01*
X613128Y-924526D01*
X620400Y-931798D01*
X631309Y-935436D01*
X642218Y-935436D01*
X653127Y-931798D01*
X656762Y-928164D01*
X660400Y-920889D01*
X581855Y-917254D02*
G01*
X585490Y-920889D01*
X581855Y-924526D01*
X578218Y-920889D01*
X581855Y-917254D01*
X546945Y-859073D02*
G01*
X506945Y-859073D01*
X528764Y-888164D01*
X517855Y-888164D01*
X510583Y-891799D01*
X506945Y-895436D01*
X503308Y-906345D01*
X503308Y-913617D01*
X506945Y-924526D01*
X514217Y-931798D01*
X525127Y-935436D01*
X536036Y-935436D01*
X546945Y-931798D01*
X550583Y-928164D01*
X554217Y-920889D01*
X479310Y-859073D02*
G01*
X450217Y-935436D01*
X421126Y-859073D02*
G01*
X450217Y-935436D01*
D11*
X3530437Y-3668727D02*
G01*
X3530437Y-3802364D01*
X3530437Y-3732364D02*
G01*
X3543162Y-3719636D01*
X3555890Y-3713271D01*
X3574981Y-3713271D01*
X3587709Y-3719636D01*
X3600437Y-3732364D01*
X3606800Y-3751455D01*
X3606800Y-3764180D01*
X3600437Y-3783271D01*
X3587709Y-3795999D01*
X3574981Y-3802364D01*
X3555890Y-3802364D01*
X3543162Y-3795999D01*
X3530437Y-3783271D01*
X3488436Y-3668727D02*
G01*
X3482073Y-3675090D01*
X3475710Y-3668727D01*
X3482073Y-3662365D01*
X3488436Y-3668727D01*
X3482073Y-3713271D02*
G01*
X3482073Y-3802364D01*
X3427346Y-3713271D02*
G01*
X3389165Y-3802364D01*
X3350981Y-3713271D02*
G01*
X3389165Y-3802364D01*
X3401890Y-3827818D01*
X3414618Y-3840546D01*
X3427346Y-3846908D01*
X3433709Y-3846908D01*
X3210981Y-3713271D02*
G01*
X3140981Y-3802364D01*
X3140981Y-3713271D02*
G01*
X3210981Y-3802364D01*
X3098982Y-3668727D02*
G01*
X3092620Y-3675090D01*
X3086254Y-3668727D01*
X3092620Y-3662365D01*
X3098982Y-3668727D01*
X3092620Y-3713271D02*
G01*
X3092620Y-3802364D01*
X2967890Y-3713271D02*
G01*
X2967890Y-3802364D01*
X2967890Y-3732364D02*
G01*
X2980618Y-3719636D01*
X2993346Y-3713271D01*
X3012437Y-3713271D01*
X3025165Y-3719636D01*
X3037890Y-3732364D01*
X3044256Y-3751455D01*
X3044256Y-3764180D01*
X3037890Y-3783271D01*
X3025165Y-3795999D01*
X3012437Y-3802364D01*
X2993346Y-3802364D01*
X2980618Y-3795999D01*
X2967890Y-3783271D01*
X2894073Y-3713271D02*
G01*
X2906801Y-3719636D01*
X2919529Y-3732364D01*
X2925892Y-3751455D01*
X2925892Y-3764180D01*
X2919529Y-3783271D01*
X2906801Y-3795999D01*
X2894073Y-3802364D01*
X2874982Y-3802364D01*
X2862254Y-3795999D01*
X2849529Y-3783271D01*
X2843164Y-3764180D01*
X2843164Y-3751455D01*
X2849529Y-3732364D01*
X2862254Y-3719636D01*
X2874982Y-3713271D01*
X2894073Y-3713271D01*
X2703164Y-3713271D02*
G01*
X2703164Y-3802364D01*
X2703164Y-3738727D02*
G01*
X2684073Y-3719636D01*
X2671348Y-3713271D01*
X2652255Y-3713271D01*
X2639529Y-3719636D01*
X2633164Y-3738727D01*
X2633164Y-3802364D01*
X2633164Y-3738727D02*
G01*
X2614074Y-3719636D01*
X2601348Y-3713271D01*
X2582255Y-3713271D01*
X2569530Y-3719636D01*
X2563164Y-3738727D01*
X2563164Y-3802364D01*
X2521165Y-3751455D02*
G01*
X2444803Y-3751455D01*
X2444803Y-3738727D01*
X2451166Y-3725999D01*
X2457528Y-3719636D01*
X2470256Y-3713271D01*
X2489347Y-3713271D01*
X2502075Y-3719636D01*
X2514803Y-3732364D01*
X2521165Y-3751455D01*
X2521165Y-3764180D01*
X2514803Y-3783271D01*
X2502075Y-3795999D01*
X2489347Y-3802364D01*
X2470256Y-3802364D01*
X2457528Y-3795999D01*
X2444803Y-3783271D01*
X2326439Y-3732364D02*
G01*
X2339167Y-3719636D01*
X2351892Y-3713271D01*
X2370983Y-3713271D01*
X2383711Y-3719636D01*
X2396439Y-3732364D01*
X2402801Y-3751455D01*
X2402801Y-3764180D01*
X2396439Y-3783271D01*
X2383711Y-3795999D01*
X2370983Y-3802364D01*
X2351892Y-3802364D01*
X2339167Y-3795999D01*
X2326439Y-3783271D01*
X2284437Y-3668727D02*
G01*
X2284437Y-3802364D01*
X2284437Y-3738727D02*
G01*
X2265347Y-3719636D01*
X2252621Y-3713271D01*
X2233531Y-3713271D01*
X2220803Y-3719636D01*
X2214438Y-3738727D01*
X2214438Y-3802364D01*
X2096076Y-3713271D02*
G01*
X2096076Y-3802364D01*
X2096076Y-3732364D02*
G01*
X2108801Y-3719636D01*
X2121529Y-3713271D01*
X2140620Y-3713271D01*
X2153348Y-3719636D01*
X2166076Y-3732364D01*
X2172439Y-3751455D01*
X2172439Y-3764180D01*
X2166076Y-3783271D01*
X2153348Y-3795999D01*
X2140620Y-3802364D01*
X2121529Y-3802364D01*
X2108801Y-3795999D01*
X2096076Y-3783271D01*
X2054075Y-3713271D02*
G01*
X2054075Y-3802364D01*
X2054075Y-3738727D02*
G01*
X2034984Y-3719636D01*
X2022256Y-3713271D01*
X2003165Y-3713271D01*
X1990440Y-3719636D01*
X1984075Y-3738727D01*
X1984075Y-3802364D01*
X1942076Y-3668727D02*
G01*
X1935713Y-3675090D01*
X1929348Y-3668727D01*
X1935713Y-3662365D01*
X1942076Y-3668727D01*
X1935713Y-3713271D02*
G01*
X1935713Y-3802364D01*
X1810984Y-3732364D02*
G01*
X1823712Y-3719636D01*
X1836440Y-3713271D01*
X1855530Y-3713271D01*
X1868258Y-3719636D01*
X1880984Y-3732364D01*
X1887349Y-3751455D01*
X1887349Y-3764180D01*
X1880984Y-3783271D01*
X1868258Y-3795999D01*
X1855530Y-3802364D01*
X1836440Y-3802364D01*
X1823712Y-3795999D01*
X1810984Y-3783271D01*
X1692622Y-3713271D02*
G01*
X1692622Y-3802364D01*
X1692622Y-3732364D02*
G01*
X1705348Y-3719636D01*
X1718076Y-3713271D01*
X1737166Y-3713271D01*
X1749894Y-3719636D01*
X1762622Y-3732364D01*
X1768985Y-3751455D01*
X1768985Y-3764180D01*
X1762622Y-3783271D01*
X1749894Y-3795999D01*
X1737166Y-3802364D01*
X1718076Y-3802364D01*
X1705348Y-3795999D01*
X1692622Y-3783271D01*
X1650621Y-3668727D02*
G01*
X1650621Y-3802364D01*
X3505200Y-3884627D02*
G01*
X3505200Y-4018264D01*
X3441562Y-3929171D02*
G01*
X3505200Y-3992808D01*
X3479746Y-3967355D02*
G01*
X3435200Y-4018264D01*
X3393201Y-3967355D02*
G01*
X3316836Y-3967355D01*
X3316836Y-3954627D01*
X3323201Y-3941899D01*
X3329564Y-3935536D01*
X3342292Y-3929171D01*
X3361382Y-3929171D01*
X3374110Y-3935536D01*
X3386836Y-3948264D01*
X3393201Y-3967355D01*
X3393201Y-3980080D01*
X3386836Y-3999171D01*
X3374110Y-4011899D01*
X3361382Y-4018264D01*
X3342292Y-4018264D01*
X3329564Y-4011899D01*
X3316836Y-3999171D01*
X3268472Y-3929171D02*
G01*
X3230290Y-4018264D01*
X3192109Y-3929171D02*
G01*
X3230290Y-4018264D01*
X3243018Y-4043718D01*
X3255746Y-4056446D01*
X3268472Y-4062808D01*
X3274837Y-4062808D01*
X3150110Y-3884627D02*
G01*
X3150110Y-4018264D01*
X3150110Y-3948264D02*
G01*
X3137382Y-3935536D01*
X3124654Y-3929171D01*
X3105564Y-3929171D01*
X3092836Y-3935536D01*
X3080110Y-3948264D01*
X3073745Y-3967355D01*
X3073745Y-3980080D01*
X3080110Y-3999171D01*
X3092836Y-4011899D01*
X3105564Y-4018264D01*
X3124654Y-4018264D01*
X3137382Y-4011899D01*
X3150110Y-3999171D01*
X2999927Y-3929171D02*
G01*
X3012655Y-3935536D01*
X3025383Y-3948264D01*
X3031746Y-3967355D01*
X3031746Y-3980080D01*
X3025383Y-3999171D01*
X3012655Y-4011899D01*
X2999927Y-4018264D01*
X2980837Y-4018264D01*
X2968109Y-4011899D01*
X2955383Y-3999171D01*
X2949018Y-3980080D01*
X2949018Y-3967355D01*
X2955383Y-3948264D01*
X2968109Y-3935536D01*
X2980837Y-3929171D01*
X2999927Y-3929171D01*
X2830654Y-3929171D02*
G01*
X2830654Y-4018264D01*
X2830654Y-3948264D02*
G01*
X2843382Y-3935536D01*
X2856110Y-3929171D01*
X2875201Y-3929171D01*
X2887929Y-3935536D01*
X2900654Y-3948264D01*
X2907019Y-3967355D01*
X2907019Y-3980080D01*
X2900654Y-3999171D01*
X2887929Y-4011899D01*
X2875201Y-4018264D01*
X2856110Y-4018264D01*
X2843382Y-4011899D01*
X2830654Y-3999171D01*
X2788655Y-3929171D02*
G01*
X2788655Y-4018264D01*
X2788655Y-3967355D02*
G01*
X2782293Y-3948264D01*
X2769565Y-3935536D01*
X2756837Y-3929171D01*
X2737746Y-3929171D01*
X2619382Y-3884627D02*
G01*
X2619382Y-4018264D01*
X2619382Y-3948264D02*
G01*
X2632110Y-3935536D01*
X2644838Y-3929171D01*
X2663929Y-3929171D01*
X2676657Y-3935536D01*
X2689382Y-3948264D01*
X2695747Y-3967355D01*
X2695747Y-3980080D01*
X2689382Y-3999171D01*
X2676657Y-4011899D01*
X2663929Y-4018264D01*
X2644838Y-4018264D01*
X2632110Y-4011899D01*
X2619382Y-3999171D01*
X2403020Y-3948264D02*
G01*
X2415748Y-3935536D01*
X2428473Y-3929171D01*
X2447566Y-3929171D01*
X2460292Y-3935536D01*
X2473020Y-3948264D01*
X2479382Y-3967355D01*
X2479382Y-3980080D01*
X2473020Y-3999171D01*
X2460292Y-4011899D01*
X2447566Y-4018264D01*
X2428473Y-4018264D01*
X2415748Y-4011899D01*
X2403020Y-3999171D01*
X2329202Y-3929171D02*
G01*
X2341930Y-3935536D01*
X2354656Y-3948264D01*
X2361021Y-3967355D01*
X2361021Y-3980080D01*
X2354656Y-3999171D01*
X2341930Y-4011899D01*
X2329202Y-4018264D01*
X2310112Y-4018264D01*
X2297384Y-4011899D01*
X2284656Y-3999171D01*
X2278293Y-3980080D01*
X2278293Y-3967355D01*
X2284656Y-3948264D01*
X2297384Y-3935536D01*
X2310112Y-3929171D01*
X2329202Y-3929171D01*
X2236292Y-3929171D02*
G01*
X2236292Y-4018264D01*
X2236292Y-3954627D02*
G01*
X2217201Y-3935536D01*
X2204476Y-3929171D01*
X2185385Y-3929171D01*
X2172657Y-3935536D01*
X2166292Y-3954627D01*
X2166292Y-4018264D01*
X2105202Y-3884627D02*
G01*
X2105202Y-3992808D01*
X2098840Y-4011899D01*
X2086112Y-4018264D01*
X2073384Y-4018264D01*
X2124293Y-3929171D02*
G01*
X2079749Y-3929171D01*
X2031385Y-3967355D02*
G01*
X1955020Y-3967355D01*
X1955020Y-3954627D01*
X1961385Y-3941899D01*
X1967748Y-3935536D01*
X1980476Y-3929171D01*
X1999566Y-3929171D01*
X2012294Y-3935536D01*
X2025020Y-3948264D01*
X2031385Y-3967355D01*
X2031385Y-3980080D01*
X2025020Y-3999171D01*
X2012294Y-4011899D01*
X1999566Y-4018264D01*
X1980476Y-4018264D01*
X1967748Y-4011899D01*
X1955020Y-3999171D01*
X1843021Y-3948264D02*
G01*
X1849384Y-3935536D01*
X1868474Y-3929171D01*
X1887567Y-3929171D01*
X1906658Y-3935536D01*
X1913021Y-3948264D01*
X1906658Y-3960990D01*
X1893930Y-3967355D01*
X1862112Y-3973718D01*
X1849384Y-3980080D01*
X1843021Y-3992808D01*
X1843021Y-3999171D01*
X1849384Y-4011899D01*
X1868474Y-4018264D01*
X1887567Y-4018264D01*
X1906658Y-4011899D01*
X1913021Y-3999171D01*
X1781931Y-3884627D02*
G01*
X1781931Y-3992808D01*
X1775566Y-4011899D01*
X1762838Y-4018264D01*
X1750113Y-4018264D01*
X1801022Y-3929171D02*
G01*
X1756476Y-3929171D01*
X3035081Y-4119618D02*
G01*
X3136900Y-4176890D01*
X3035081Y-4234164D01*
X2929445Y-4100527D02*
G01*
X2929445Y-4202346D01*
X2935810Y-4221436D01*
X2942173Y-4227799D01*
X2954901Y-4234164D01*
X2967626Y-4234164D01*
X2980354Y-4227799D01*
X2986717Y-4221436D01*
X2993082Y-4202346D01*
X2993082Y-4189618D01*
X2881081Y-4202346D02*
G01*
X2887446Y-4208708D01*
X2881081Y-4215071D01*
X2874718Y-4208708D01*
X2881081Y-4202346D01*
X2832719Y-4100527D02*
G01*
X2832719Y-4234164D01*
X2832719Y-4100527D02*
G01*
X2775445Y-4100527D01*
X2756354Y-4106890D01*
X2749991Y-4113255D01*
X2743629Y-4125981D01*
X2743629Y-4138709D01*
X2749991Y-4151436D01*
X2756354Y-4157799D01*
X2775445Y-4164164D01*
X2832719Y-4164164D02*
G01*
X2775445Y-4164164D01*
X2756354Y-4170527D01*
X2749991Y-4176890D01*
X2743629Y-4189618D01*
X2743629Y-4208708D01*
X2749991Y-4221436D01*
X2756354Y-4227799D01*
X2775445Y-4234164D01*
X2832719Y-4234164D01*
X2701627Y-4183255D02*
G01*
X2625265Y-4183255D01*
X2625265Y-4170527D01*
X2631627Y-4157799D01*
X2637990Y-4151436D01*
X2650718Y-4145071D01*
X2669809Y-4145071D01*
X2682537Y-4151436D01*
X2695265Y-4164164D01*
X2701627Y-4183255D01*
X2701627Y-4195980D01*
X2695265Y-4215071D01*
X2682537Y-4227799D01*
X2669809Y-4234164D01*
X2650718Y-4234164D01*
X2637990Y-4227799D01*
X2625265Y-4215071D01*
X2506901Y-4164164D02*
G01*
X2519629Y-4151436D01*
X2532354Y-4145071D01*
X2551447Y-4145071D01*
X2564173Y-4151436D01*
X2576901Y-4164164D01*
X2583263Y-4183255D01*
X2583263Y-4195980D01*
X2576901Y-4215071D01*
X2564173Y-4227799D01*
X2551447Y-4234164D01*
X2532354Y-4234164D01*
X2519629Y-4227799D01*
X2506901Y-4215071D01*
X2464902Y-4100527D02*
G01*
X2464902Y-4234164D01*
X2401265Y-4145071D02*
G01*
X2464902Y-4208708D01*
X2439446Y-4183255D02*
G01*
X2394902Y-4234164D01*
X2352901Y-4183255D02*
G01*
X2276538Y-4183255D01*
X2276538Y-4170527D01*
X2282901Y-4157799D01*
X2289266Y-4151436D01*
X2301991Y-4145071D01*
X2321082Y-4145071D01*
X2333810Y-4151436D01*
X2346538Y-4164164D01*
X2352901Y-4183255D01*
X2352901Y-4195980D01*
X2346538Y-4215071D01*
X2333810Y-4227799D01*
X2321082Y-4234164D01*
X2301991Y-4234164D01*
X2289266Y-4227799D01*
X2276538Y-4215071D01*
X2234537Y-4145071D02*
G01*
X2234537Y-4234164D01*
X2234537Y-4183255D02*
G01*
X2228174Y-4164164D01*
X2215446Y-4151436D01*
X2202721Y-4145071D01*
X2183630Y-4145071D01*
X2141628Y-4119618D02*
G01*
X2039810Y-4176890D01*
X2141628Y-4234164D01*
D10*
X192278Y1235455D02*
G01*
X181863Y1245870D01*
X176784Y1261363D01*
X176784Y1282192D01*
X181863Y1297686D01*
X192278Y1308100D01*
X202692Y1308100D01*
X213105Y1303020D01*
X218439Y1297686D01*
X223520Y1287271D01*
X233934Y1256029D01*
X239013Y1245870D01*
X244347Y1240536D01*
X254762Y1235455D01*
X270255Y1235455D01*
X280670Y1245870D01*
X285750Y1261363D01*
X285750Y1282192D01*
X280670Y1297686D01*
X270255Y1308100D01*
X176784Y1201165D02*
G01*
X285750Y1201165D01*
X176784Y1201165D02*
G01*
X176784Y1154429D01*
X181863Y1138681D01*
X187197Y1133602D01*
X197612Y1128268D01*
X213105Y1128268D01*
X223520Y1133602D01*
X228600Y1138681D01*
X233934Y1154429D01*
X233934Y1201165D01*
X176784Y1093978D02*
G01*
X285750Y1093978D01*
M02*
